<?xml version="1.0" encoding="UTF-8"?>
<svg version="1.1" xmlns="http://www.w3.org/2000/svg" width="512" height="512">
<style>path { stroke: #000000; stroke-width: 10px; }</style>
<path d="M0 0 C30.89841266 25.37670596 52.53626943 60.69803239 56.5859375 100.9765625 C56.69605459 103.67126122 56.77253504 106.34076881 56.7890625 109.03515625 C56.79476257 109.78257584 56.80046265 110.52999542 56.80633545 111.30006409 C56.8157213 112.87572851 56.82229366 114.451412 56.82617188 116.02709961 C56.83578654 118.37716332 56.86683284 120.72631591 56.8984375 123.07617188 C56.99650802 136.99926113 55.0973989 150.37564268 51.0234375 163.7265625 C50.77368164 164.54527832 50.52392578 165.36399414 50.26660156 166.20751953 C48.21126872 172.6179689 45.67461058 178.75050059 42.8359375 184.8515625 C42.46654053 185.65819336 42.09714355 186.46482422 41.71655273 187.29589844 C39.50414001 191.84824841 37.04041316 195.6920273 33.82831776 199.61730957 C27.42294004 207.69315221 26.17092068 214.33783359 26.42236328 224.6640625 C26.42186846 226.18034618 26.41689641 227.69663384 26.40785217 229.21289062 C26.3980054 232.44928489 26.41918975 235.68336313 26.46570206 238.91943359 C26.53927904 244.04946601 26.54167028 249.17812637 26.53561401 254.30859375 C26.53433414 262.43049436 26.58027095 270.55132328 26.64653194 278.67292786 C26.76400017 293.20158239 26.81000821 307.73047122 26.82462108 322.25956726 C26.83172468 327.34571172 26.86236482 332.43098729 26.91324162 337.51687622 C26.94160335 340.69475073 26.95352663 343.87255335 26.96183586 347.05053711 C26.9692034 348.50892464 26.98343256 349.96729873 27.00555229 351.42553711 C27.27315135 369.57445699 22.20814413 384.62502358 9.75341797 397.83496094 C-1.42398124 409.29566698 -15.95379008 416.95193234 -32.1706543 417.31713867 C-34.65158066 417.31667037 -37.13254345 417.30012203 -39.61328125 417.26953125 C-40.92947952 417.26528641 -42.2456778 417.26104156 -43.60176086 417.25666809 C-47.06238628 417.2453384 -50.52262014 417.21597758 -53.98309326 417.18255615 C-57.52969062 417.15159534 -61.07635267 417.13810781 -64.62304688 417.12304688 C-71.55354394 417.09109321 -78.4837843 417.04004531 -85.4140625 416.9765625 C-85.30281222 420.62294879 -85.17252079 424.26842682 -85.0390625 427.9140625 C-84.99265625 429.44643555 -84.99265625 429.44643555 -84.9453125 431.00976562 C-84.60675097 439.84057898 -84.17547671 447.89825361 -78.4140625 454.9765625 C-70.85572848 461.77906311 -63.30287201 462.12909034 -53.50857544 462.11027527 C-52.63506435 462.11254083 -51.76155327 462.11480638 -50.86157215 462.11714059 C-47.94692642 462.12344936 -45.03232756 462.12265324 -42.11767578 462.12182617 C-40.02289775 462.12481958 -37.92812027 462.12822254 -35.83334351 462.13200378 C-30.1515138 462.14082878 -24.46969915 462.14318125 -18.78786325 462.14381957 C-15.23638026 462.14453085 -11.68490108 462.14666663 -8.13341904 462.14931679 C4.2611541 462.15856477 16.65571649 462.1626523 29.05029297 462.16186523 C40.59677227 462.16126437 52.14320487 462.17181934 63.68967235 462.1876089 C73.61004413 462.20069054 83.53040065 462.20604888 93.45078099 462.20540982 C99.37266948 462.20515505 105.29451644 462.20799505 111.21639633 462.21858788 C116.78632802 462.22827948 122.35617855 462.2283407 127.92611313 462.22107124 C129.96706257 462.22002678 132.00801709 462.22238009 134.04895782 462.2284317 C136.84156111 462.23617401 139.63388567 462.23149203 142.42648315 462.22380066 C143.22815568 462.22894422 144.0298282 462.23408779 144.85579383 462.23938721 C152.92515257 462.19049798 160.16971355 461.19907037 166.5859375 455.9765625 C174.18435921 447.53387172 173.73763594 438.7717616 173.90234375 427.91796875 C173.9335154 426.20153419 173.9335154 426.20153419 173.96531677 424.45042419 C174.03043543 420.81336174 174.0895214 417.17623019 174.1484375 413.5390625 C174.19165858 411.06574821 174.235274 408.59244077 174.27929688 406.11914062 C174.38607799 400.07168655 174.4879128 394.02416451 174.5859375 387.9765625 C173.6604863 387.78195686 173.6604863 387.78195686 172.71633911 387.5834198 C171.90647552 387.40917984 171.09661194 387.23493988 170.26220703 387.05541992 C169.45961456 386.88443283 168.65702209 386.71344574 167.83010864 386.53727722 C159.44086823 384.4411935 151.85508587 377.91146222 147.15234375 370.8125 C145.84755933 368.55913344 144.6657748 366.34702725 143.5859375 363.9765625 C143.07579102 362.9153418 142.56564453 361.85412109 142.04003906 360.76074219 C139.91392022 355.00998914 140.16149394 349.12113353 140.17524719 343.0588131 C140.17977627 340.88314011 140.16558274 338.70825902 140.14685059 336.53266907 C140.11027718 331.90981264 140.09640272 327.28704217 140.0859375 322.6640625 C140.07378881 317.31081928 140.05190845 311.95796717 140.00593567 306.60489845 C139.99253407 304.48071289 139.99650518 302.35704381 140.00134277 300.23283386 C139.90718311 287.98931157 138.52650503 278.18715583 129.8359375 269.1015625 C125.54711544 265.55539361 120.5528692 263.35442935 115.57788086 260.94238281 C107.06658168 256.8011617 98.78566591 252.55927163 94.47518921 243.69145203 C93.44030081 240.53193302 93.31816916 237.9248623 93.29541016 234.60083008 C93.28265045 233.33213577 93.26989075 232.06344147 93.25674438 230.75630188 C93.25368555 229.37790073 93.25145842 227.99949752 93.25 226.62109375 C93.24356526 225.19487883 93.23683641 223.76866522 93.22982788 222.342453 C93.21786905 219.35416611 93.21414536 216.36599467 93.21533203 213.37768555 C93.21553459 209.57269984 93.1882932 205.76846637 93.15378761 201.96365833 C93.13139924 199.01656283 93.12749819 196.06964454 93.12855148 193.12247276 C93.1262111 191.72121285 93.11747688 190.31994688 93.10188675 188.91877174 C92.99942615 178.75452498 93.78906126 169.30808086 101.0234375 161.5390625 C101.57902344 160.92160156 102.13460938 160.30414063 102.70703125 159.66796875 C104.5859375 157.9765625 104.5859375 157.9765625 107.28125 156.84375 C109.73917112 155.25550139 109.73917112 155.25550139 109.98168945 153.0612793 C110.08995658 150.54637346 110.07129156 148.05577186 110.0234375 145.5390625 C110.1918068 135.74295056 111.60621447 128.08491306 118.703125 120.8046875 C126.19280716 114.53305053 133.59090626 112.52208486 143.14794922 112.57250977 C144.06939728 112.56564651 144.99084534 112.55878326 145.94021606 112.55171204 C148.9655122 112.53351354 151.99028623 112.537272 155.015625 112.54296875 C157.13258023 112.5384033 159.24953398 112.53309665 161.3664856 112.52708435 C165.79630567 112.51816662 170.22594534 112.52056082 174.65576172 112.53051758 C180.31360475 112.5419995 185.97082292 112.52180044 191.62858391 112.49260044 C195.99882927 112.47419351 200.36892617 112.47453998 204.73920059 112.48023796 C206.82425945 112.48039066 208.9093287 112.47438938 210.99435043 112.46194649 C213.91833652 112.44695508 216.84118457 112.45777365 219.76513672 112.47485352 C220.6142865 112.46518555 221.46343628 112.45551758 222.33831787 112.44555664 C230.64331157 112.54639377 238.89915696 115.20800113 244.984375 121.0625 C251.93958089 129.37481924 253.35116126 137.40804209 252.83349609 147.94580078 C252.71749952 152.81689679 252.71749952 152.81689679 255.28857422 156.75292969 C256.69952198 157.77783592 258.14203834 158.76069083 259.61279297 159.69775391 C262.05188965 161.2785493 263.42474682 163.02576118 264.9609375 165.4765625 C265.42242187 166.188125 265.88390625 166.8996875 266.359375 167.6328125 C268.93691323 172.55804479 269.83869538 176.96231118 269.87646484 182.49755859 C269.8956044 184.41016983 269.8956044 184.41016983 269.91513062 186.36141968 C269.91818855 187.74094489 269.92041616 189.12047217 269.921875 190.5 C269.92831039 191.92957693 269.93503929 193.35915257 269.94204712 194.78872681 C269.95399172 197.77942964 269.95773083 200.7700172 269.95654297 203.76074219 C269.95633986 207.57598269 269.98364496 211.39047762 270.01808739 215.20554161 C270.04042287 218.15684342 270.04437851 221.10796761 270.04332352 224.05934525 C270.04566937 225.46504918 270.0544352 226.87075878 270.06998825 228.27637863 C270.16145574 237.3958254 269.72283992 243.65183661 264.0078125 251.0078125 C258.99440404 255.41211526 253.49563059 258.18593873 247.52929688 261.05981445 C237.16713715 266.05481328 229.66447239 270.71203756 225.5859375 281.9765625 C224.79003681 286.57165316 224.45851765 290.99616243 224.4440918 295.65527344 C224.43705734 296.94060974 224.43002289 298.22594604 224.42277527 299.55023193 C224.42095938 300.22777275 224.41914349 300.90531357 224.41727257 301.60338593 C224.41002645 303.74937817 224.39430054 305.8951522 224.37593079 308.04107666 C224.32384406 314.13835642 224.27555139 320.23551036 224.26000977 326.33300781 C224.24984926 330.07609033 224.22032974 333.81861098 224.17868996 337.56147003 C224.16649504 338.97578912 224.16123732 340.39018793 224.16348839 341.8045578 C224.18032675 355.837186 221.08815398 366.42401467 211.5859375 376.9765625 C205.63016644 382.30021192 196.87353784 387.9765625 188.5859375 387.9765625 C188.59704056 388.71412781 188.60814362 389.45169312 188.61958313 390.21160889 C188.72038196 397.21266799 188.79620185 404.21346957 188.84499836 411.21505356 C188.87093021 414.81344682 188.90601969 418.41123322 188.96313477 422.00927734 C189.01805169 425.49122195 189.04748091 428.97258842 189.06032372 432.45493317 C189.07385908 434.40901283 189.11279411 436.36286462 189.15242004 438.31658936 C189.1558471 449.39083886 186.39541932 459.06651605 178.609375 467.2265625 C170.28875355 474.42277564 161.95081682 477.28216259 151.12408447 477.24398804 C150.17862943 477.24851915 149.2331744 477.25305026 148.2590692 477.25771868 C145.09486347 477.27036651 141.93082976 477.26874204 138.76660156 477.26708984 C136.49625426 477.27307488 134.22590899 477.27988037 131.95556641 477.28744507 C125.79014676 477.30511561 119.62478262 477.30980093 113.4593401 477.31107664 C109.60616542 477.3124983 105.75300485 477.31676821 101.89983368 477.32207108 C89.14762024 477.33962053 76.39545304 477.34891089 63.64323047 477.34741013 C62.61278549 477.34729026 62.61278549 477.34729026 61.56152344 477.34716797 C60.52981367 477.34704533 60.52981367 477.34704533 59.47726128 477.34692021 C48.33604862 477.3461077 37.19497128 477.36523785 26.05379775 477.3934447 C14.60199677 477.42220814 3.15028912 477.43561723 -8.30155396 477.43425715 C-14.7259974 477.43374758 -21.1502877 477.43942798 -27.5746994 477.46061325 C-33.61909945 477.48000102 -39.66320039 477.48011609 -45.70761108 477.46557999 C-47.92229907 477.46349142 -50.1370058 477.46819555 -52.35166168 477.4803009 C-55.38288195 477.49579247 -58.41307591 477.4864189 -61.4442749 477.47103882 C-62.31375377 477.48132594 -63.18323265 477.49161307 -64.07905936 477.50221193 C-73.80100661 477.39374147 -82.32547188 473.59454129 -89.4140625 466.9765625 C-99.3188683 456.43530332 -99.84438164 446.24864472 -99.6015625 432.4140625 C-99.58648642 430.91342491 -99.57280319 429.41277265 -99.56054688 427.91210938 C-99.52777732 424.26661798 -99.47615729 420.62168615 -99.4140625 416.9765625 C-100.50161835 416.98655525 -100.50161835 416.98655525 -101.61114502 416.99674988 C-108.49451133 417.05723835 -115.37783714 417.10272672 -122.26140213 417.13199902 C-125.79905933 417.14755494 -129.33649416 417.16860487 -132.87402344 417.20288086 C-136.95509796 417.24216912 -141.03594445 417.25635476 -145.1171875 417.26953125 C-146.9929245 417.29275703 -146.9929245 417.29275703 -148.90655518 417.31645203 C-167.15636784 417.31989712 -182.30630998 410.75662121 -195.4140625 397.9765625 C-207.77878687 383.8945153 -211.74104197 369.08163158 -211.60595703 350.83081055 C-211.60215374 349.30070197 -211.59934758 347.77059065 -211.59745789 346.24047852 C-211.59203293 342.95734193 -211.58107114 339.6742871 -211.56619644 336.39118004 C-211.54417333 331.19132053 -211.54382191 325.9915987 -211.54806519 320.79170227 C-211.5492584 319.00707151 -211.55042741 317.22244074 -211.5515728 315.43780994 C-211.55215305 314.54438723 -211.5527333 313.65096452 -211.55333114 312.73046839 C-211.55934385 300.63505227 -211.54699216 288.53988339 -211.49316406 276.44458008 C-211.45696295 268.27101927 -211.44932741 260.09795843 -211.47366226 251.92434722 C-211.4853134 247.60609165 -211.48241952 243.2889562 -211.44415665 238.97083092 C-211.40825177 234.90647638 -211.40991759 230.84381639 -211.43938637 226.77942657 C-211.44358118 225.29562335 -211.4343247 223.81170548 -211.40995979 222.32809639 C-211.24918982 211.89955862 -213.48581497 205.88787442 -220.4140625 197.9765625 C-236.48338047 174.23641535 -242.83534175 146.27137358 -242.9140625 117.9765625 C-242.91873535 117.25442566 -242.9234082 116.53228882 -242.92822266 115.78826904 C-243.02859695 75.75375581 -225.77837921 38.79697837 -197.98486328 10.52441406 C-145.50132765 -41.19234315 -57.59726254 -45.92184065 0 0 Z M-186.4140625 20.9765625 C-187.17203125 21.66363281 -187.93 22.35070313 -188.7109375 23.05859375 C-205.2713848 38.79101869 -216.71148985 60.02108363 -223.2265625 81.7265625 C-223.51901855 82.69891846 -223.51901855 82.69891846 -223.81738281 83.69091797 C-226.96951049 94.834551 -227.82453538 105.8661828 -227.7890625 117.4140625 C-227.78818634 118.11421478 -227.78731018 118.81436707 -227.78640747 119.53573608 C-227.69173811 142.57773517 -223.0262114 174.28288038 -205.85717773 191.54771423 C-194.76417625 203.15528717 -197.07120278 219.48357417 -197.26405716 234.45926023 C-197.30630282 238.61316333 -197.28960681 242.76683857 -197.27905273 246.92088318 C-197.26749538 254.7818762 -197.30478269 262.64179018 -197.36157322 270.50255674 C-197.44272751 282.01552168 -197.45379074 293.52859955 -197.46026611 305.04181576 C-197.4612997 306.75052834 -197.46233727 308.45924092 -197.46337891 310.16795349 C-197.46377167 311.00313961 -197.46416443 311.83832574 -197.46456909 312.69882053 C-197.46858023 317.62279008 -197.48794091 322.54638796 -197.52141476 327.47024357 C-197.54114339 330.54536414 -197.55306553 333.62048819 -197.5637455 336.69565201 C-197.57057325 338.1076638 -197.58091002 339.51966432 -197.59526634 340.93161964 C-197.76428354 357.82456079 -196.06293908 373.38379702 -184.7109375 386.65625 C-171.0757706 400.43055126 -155.4612418 403.08278648 -136.86328125 403.23535156 C-132.27594914 403.25617488 -127.68892081 403.25107984 -123.1015625 403.2421875 C-120.64021771 403.24353723 -118.17887318 403.24548031 -115.7175293 403.24798584 C-110.57695967 403.25092262 -105.4364599 403.24668615 -100.29589844 403.23730469 C-93.73626647 403.22591114 -87.17679822 403.23247838 -80.61717224 403.24444962 C-75.53998603 403.25170736 -70.46283806 403.24936236 -65.38565063 403.24419403 C-62.96814962 403.24286835 -60.55064503 403.24446695 -58.13314819 403.24915314 C-27.28130971 403.47424691 -27.28130971 403.47424691 -1.4140625 387.9765625 C11.25781493 373.33155537 12.95941423 357.71859796 12.7019043 338.90576172 C12.68984603 337.44388605 12.678814 335.98200161 12.66871643 334.52011108 C12.64564874 331.3996332 12.61672567 328.2792865 12.58344078 325.15890121 C12.53204517 320.21497367 12.50208258 315.27105396 12.47627258 310.32693481 C12.40053708 296.277423 12.31108651 282.22820003 12.16772461 268.17919922 C12.08850574 260.39875908 12.03458036 252.6185701 12.00865871 244.83776486 C11.99388157 240.73192365 11.96619715 236.62709314 11.90695763 232.52163315 C11.85130176 228.66187369 11.82879758 224.80329629 11.83077049 220.94314957 C11.82569093 219.53505981 11.80874423 218.12694951 11.77841568 216.71917725 C11.57303392 206.75376002 13.48209287 200.83955102 19.5859375 192.9765625 C20.32867854 191.86704065 21.06038611 190.74992531 21.7734375 189.62109375 C22.3715625 188.68652344 22.9696875 187.75195312 23.5859375 186.7890625 C30.38010562 175.68928784 35.39467885 163.59385365 38.5859375 150.9765625 C39.03453125 149.26339844 39.03453125 149.26339844 39.4921875 147.515625 C44.05058998 126.70736182 43.54996825 102.41809383 37.5859375 81.9765625 C37.38226563 81.26081055 37.17859375 80.54505859 36.96875 79.80761719 C26.88846208 45.53774947 3.0245712 16.74493202 -28.11279297 -0.37353516 C-80.64691347 -28.4248261 -142.91487031 -19.14163595 -186.4140625 20.9765625 Z M127.5859375 133.9765625 C124.47203767 140.24218281 124.5859375 144.68380023 124.5859375 151.9765625 C162.2059375 151.9765625 199.8259375 151.9765625 238.5859375 151.9765625 C238.70187252 140.37808068 238.70187252 140.37808068 232.8984375 131.0390625 C226.79865418 127.24108421 220.53116992 126.67712033 213.47680664 126.7019043 C212.32631081 126.6942379 212.32631081 126.6942379 211.15257263 126.68641663 C208.64199811 126.67262865 206.13170141 126.67346905 203.62109375 126.67578125 C201.86046753 126.67188866 200.09984224 126.66755284 198.33921814 126.66279602 C194.65848743 126.65535722 190.97785269 126.65560826 187.29711914 126.66088867 C182.59883858 126.66668312 177.90095228 126.64974154 173.20273685 126.626544 C169.56942987 126.61175714 165.9362168 126.61094163 162.30288506 126.61405373 C160.57146867 126.6135431 158.84004667 126.60835434 157.10865974 126.59824181 C140.95943522 126.09418819 140.95943522 126.09418819 127.5859375 133.9765625 Z M113.7109375 170.8515625 C112.87949219 171.59019531 112.87949219 171.59019531 112.03125 172.34375 C106.46753952 178.62923913 107.41498763 187.37446896 107.3828125 195.25390625 C107.37711243 196.3386171 107.37141235 197.42332794 107.36553955 198.54090881 C107.35611616 200.82959017 107.34956618 203.11828493 107.34570312 205.40698242 C107.33598079 208.89851552 107.30492476 212.38946381 107.2734375 215.88085938 C107.26690829 218.10937152 107.2616575 220.33788786 107.2578125 222.56640625 C107.2454657 223.60514389 107.2331189 224.64388153 107.22039795 225.71409607 C107.23834293 231.58081043 107.69674941 235.82220944 110.5859375 240.9765625 C112.97460507 243.0445152 112.97460507 243.0445152 115.8984375 244.4765625 C116.96320313 245.05535156 118.02796875 245.63414062 119.125 246.23046875 C121.4614498 247.40924196 123.81097811 248.56239347 126.171875 249.69140625 C138.15123819 255.42123181 146.42282753 261.38195981 151.5859375 273.9765625 C153.77447567 281.00434326 153.92847838 287.67905969 154 295.0078125 C154.01936615 296.23947144 154.0387323 297.47113037 154.0586853 298.7401123 C154.11819537 302.65219316 154.16475245 306.5643039 154.2109375 310.4765625 C154.24809151 313.13805203 154.2881967 315.79948696 154.328125 318.4609375 C154.42545882 324.96608131 154.50525625 331.4711058 154.5859375 337.9765625 C172.7359375 337.9765625 190.8859375 337.9765625 209.5859375 337.9765625 C209.61171875 333.91730469 209.6375 329.85804688 209.6640625 325.67578125 C209.69580531 322.41040847 209.73145921 319.14512971 209.76972961 315.87982941 C209.80888259 312.44875724 209.84136925 309.01793706 209.85693359 305.58666992 C209.87517202 301.63688121 209.92521036 297.68778317 209.9765625 293.73828125 C209.97779114 292.52637619 209.97901978 291.31447113 209.98028564 290.06584167 C210.18775217 277.85715709 213.71416145 267.01338121 222.375 258.14453125 C227.78415265 253.51855707 234.01311925 250.67606575 240.4699707 247.81616211 C249.50302333 243.97114544 249.50302333 243.97114544 254.98744202 236.15776062 C256.20268052 231.72886179 255.98990177 227.19751024 255.94921875 222.63671875 C255.94971725 221.55579453 255.95021576 220.4748703 255.95072937 219.3611908 C255.94839622 217.08265336 255.93871274 214.80411298 255.92211914 212.52563477 C255.8985387 209.05396253 255.90156313 205.58306011 255.90820312 202.11132812 C255.90262514 199.89062046 255.89551451 197.669916 255.88671875 195.44921875 C255.88808586 193.9035598 255.88808586 193.9035598 255.88948059 192.32667542 C255.80956467 181.41864522 255.80956467 181.41864522 250.7109375 172.1015625 C250.21851563 171.54726562 249.72609375 170.99296875 249.21875 170.421875 C243.01749212 164.93272328 234.52515194 165.82782117 226.75048828 165.83129883 C225.67006256 165.82794022 224.58963684 165.8245816 223.47647095 165.82112122 C219.91138554 165.81163658 216.34634723 165.8096694 212.78125 165.80859375 C210.29792257 165.80537963 207.81459534 165.80201544 205.33126831 165.79850769 C200.12790488 165.79252278 194.92455804 165.79066716 189.72119141 165.79125977 C183.06109819 165.79136139 176.40114888 165.77770559 169.74107552 165.76048756 C164.61261508 165.74935756 159.48418035 165.74734086 154.35570908 165.74786949 C151.90057889 165.74669103 149.44544801 165.74227676 146.99032974 165.73453712 C143.55353621 165.72471652 140.11697319 165.72762353 136.68017578 165.73364258 C135.67108154 165.72802307 134.6619873 165.72240356 133.62231445 165.71661377 C126.60914727 165.747752 119.14732998 165.83135318 113.7109375 170.8515625 Z M155.5859375 351.9765625 C159.34517758 361.37466271 162.86786836 368.13567757 172.15234375 372.31640625 C178.84744508 374.13257338 186.7297823 374.28378947 193.0859375 371.2890625 C194.27865717 370.55918927 195.44807878 369.78931873 196.5859375 368.9765625 C197.6378125 368.2340625 198.6896875 367.4915625 199.7734375 366.7265625 C204.21920531 362.37958953 207.07529394 358.01913673 208.5859375 351.9765625 C191.0959375 351.9765625 173.6059375 351.9765625 155.5859375 351.9765625 Z " fill="#000000" transform="translate(242.4140625,33.0234375)"/>
<path d="M0 0 C0.6581369 0.00021149 1.3162738 0.00042297 1.99435425 0.00064087 C32.17795276 0.09718226 59.14632437 12.15985496 80.625 33.125 C102.55129358 55.40505874 111.95184412 84.04821874 111.79882812 114.88793945 C111.49501559 142.92102861 101.04764069 168.26203519 81.4375 188.375 C80.633125 189.220625 79.82875 190.06625 79 190.9375 C78.154375 191.741875 77.30875 192.54625 76.4375 193.375 C75.80199219 194.01695312 75.16648438 194.65890625 74.51171875 195.3203125 C62.97683841 206.44807941 48.66229857 213.71652859 33.4375 218.375 C32.78861816 218.58382812 32.13973633 218.79265625 31.47119141 219.0078125 C11.40789691 225.25258084 -12.61046456 224.84193995 -32.5625 218.375 C-33.2440918 218.16069336 -33.92568359 217.94638672 -34.62792969 217.72558594 C-49.43891751 212.95523965 -61.78168906 205.58900275 -73.5625 195.375 C-74.59375 194.59125 -75.625 193.8075 -76.6875 193 C-81.18339981 188.895048 -84.84122562 184.18001393 -88.5625 179.375 C-89.17351562 178.59125 -89.78453125 177.8075 -90.4140625 177 C-104.54879503 157.89552134 -110.96895964 135.38476228 -110.9375 111.8125 C-110.93728851 111.1543631 -110.93707703 110.4962262 -110.93685913 109.81814575 C-110.84031774 79.63454724 -98.77764504 52.66617563 -77.8125 31.1875 C-56.90629881 10.61324972 -29.17993971 -0.03894368 0 0 Z M-61.5625 37.375 C-62.34496094 38.0040625 -63.12742188 38.633125 -63.93359375 39.28125 C-81.15257315 53.67964775 -92.86072082 76.11130041 -95.5625 98.375 C-95.67768648 102.33439719 -95.65670445 106.28938217 -95.625 110.25 C-95.62048828 111.31992188 -95.61597656 112.38984375 -95.61132812 113.4921875 C-95.59959749 116.11984986 -95.58318228 118.74739538 -95.5625 121.375 C-92.5925 121.375 -89.6225 121.375 -86.5625 121.375 C-86.12381592 120.39104248 -85.68513184 119.40708496 -85.2331543 118.39331055 C-83.6018893 114.73930747 -81.96161436 111.08940864 -80.31860352 107.44067383 C-79.60911059 105.86169952 -78.90205734 104.2816266 -78.19750977 102.70043945 C-77.18366526 100.42625547 -76.16107754 98.15618262 -75.13671875 95.88671875 C-74.82409592 95.18036789 -74.51147308 94.47401703 -74.18937683 93.7462616 C-71.24949456 87.27585672 -71.24949456 87.27585672 -68.5625 85.375 C-65.0625 84.9375 -65.0625 84.9375 -61.5625 85.375 C-59.09289789 88.03301185 -57.9118923 90.7118031 -56.78491211 94.12768555 C-56.47126205 95.06513107 -56.157612 96.0025766 -55.8344574 96.96842957 C-55.50623489 97.972715 -55.17801239 98.97700043 -54.83984375 100.01171875 C-54.49369522 101.0469014 -54.14754669 102.08208405 -53.79090881 103.14863586 C-52.68685747 106.45094911 -51.592303 109.75628354 -50.5 113.0625 C-49.05918176 117.42342699 -47.60883731 121.78100562 -46.15234375 126.13671875 C-45.82209702 127.14707687 -45.49185028 128.157435 -45.15159607 129.19841003 C-44.84109818 130.12639908 -44.53060028 131.05438812 -44.21069336 132.01049805 C-43.93994492 132.83116257 -43.66919647 133.65182709 -43.39024353 134.49736023 C-42.7180611 136.56306497 -42.7180611 136.56306497 -40.5625 137.375 C-40.00820312 136.37597656 -39.45390625 135.37695312 -38.8828125 134.34765625 C-38.15132662 133.04411089 -37.41954018 131.74073416 -36.6875 130.4375 C-36.32269531 129.77814453 -35.95789063 129.11878906 -35.58203125 128.43945312 C-32.7890625 123.48828125 -32.7890625 123.48828125 -30.5625 122.375 C-28.358136 122.14549681 -26.14857827 121.96424067 -23.9375 121.8125 C-22.74898438 121.72871094 -21.56046875 121.64492187 -20.3359375 121.55859375 C-19.42070312 121.49800781 -18.50546875 121.43742187 -17.5625 121.375 C-17.33921524 120.66756149 -17.11593048 119.96012299 -16.88587952 119.23124695 C-14.78202141 112.56569069 -12.67793328 105.90020709 -10.57358646 99.23480511 C-9.49172022 95.80802542 -8.40994308 92.38121766 -7.32836914 88.9543457 C-6.28467363 85.6474996 -5.24074461 82.34072729 -4.19665337 79.03400612 C-3.60433367 77.15786908 -3.01225609 75.28165561 -2.42018127 73.40544128 C-1.87973427 71.69400688 -1.87973427 71.69400688 -1.32836914 69.94799805 C-1.01082169 68.942061 -0.69327423 67.93612396 -0.36610413 66.89970398 C0.22145965 65.05373958 0.8248977 63.2128069 1.4375 61.375 C4.55627956 59.81561022 7.01005771 60.0142166 10.4375 60.375 C13.20130109 63.98768566 14.19714864 67.65906168 15.21508789 72.04541016 C15.36837051 72.69481064 15.52165314 73.34421112 15.67958069 74.01329041 C16.0091356 75.41465415 16.33471426 76.81695782 16.65669441 78.22008133 C17.16636643 80.44112516 17.68641334 82.6595163 18.20909119 84.87753296 C19.12786341 88.78407805 20.03739018 92.69270704 20.94390869 96.60211182 C22.39667932 102.86651745 23.85730757 109.12903149 25.32964897 115.38886642 C25.841226 117.57409534 26.34505128 119.76101488 26.84840393 121.94815063 C27.16171077 123.28663674 27.47532822 124.62505018 27.78930664 125.96337891 C28.06005508 127.13188385 28.33080353 128.30038879 28.60975647 129.50430298 C29.32778082 132.53808874 29.32778082 132.53808874 31.4375 135.375 C32.04053955 134.24408936 32.04053955 134.24408936 32.65576172 133.09033203 C46.22745214 107.65454476 46.22745214 107.65454476 52.1875 96.9375 C52.77700439 95.87716553 52.77700439 95.87716553 53.37841797 94.79541016 C54.39052326 92.98434493 55.41346632 91.17934735 56.4375 89.375 C56.96085938 88.41335937 57.48421875 87.45171875 58.0234375 86.4609375 C59.4375 84.375 59.4375 84.375 62.3125 83.4375 C65.84483906 83.36685322 67.42014737 83.53389338 70.4375 85.375 C71.60108939 88.14122582 72.39760545 90.56254835 73.11328125 93.4453125 C73.43560982 94.63965408 73.43560982 94.63965408 73.76445007 95.85812378 C74.44585332 98.40068901 75.09814373 100.9497174 75.75 103.5 C76.20708644 105.22576422 76.66604872 106.95103278 77.12695312 108.67578125 C78.25231064 112.90341193 79.35162017 117.13706551 80.4375 121.375 C85.7175 121.375 90.9975 121.375 96.4375 121.375 C97.33080337 93.21112999 92.03218229 69.69157678 72.875 48.0625 C71.40169849 46.49446845 69.923056 44.93142656 68.4375 43.375 C67.91027344 42.77300781 67.38304687 42.17101562 66.83984375 41.55078125 C51.76349449 25.00921134 28.24033186 16.70663115 6.5 14.5 C-18.10219466 13.37404143 -42.93872703 21.01191623 -61.5625 37.375 Z M4.4375 97.375 C4.10951416 98.46031006 3.78152832 99.54562012 3.44360352 100.66381836 C2.22984147 104.67716151 1.01192408 108.68923338 -0.20727539 112.70092773 C-0.73510993 114.43983936 -1.26180567 116.17909708 -1.78735352 117.91870117 C-2.54146419 120.41416072 -3.29961574 122.90836092 -4.05859375 125.40234375 C-4.29404404 126.18463852 -4.52949432 126.96693329 -4.77207947 127.77293396 C-6.44862829 133.26112829 -6.44862829 133.26112829 -7.5625 134.375 C-8.52671875 134.20097656 -9.4909375 134.02695313 -10.484375 133.84765625 C-15.05374509 133.35808088 -18.50221578 133.00730002 -22.5625 135.375 C-28.8896372 142.93896208 -33.45361986 153.04835958 -36.5625 162.375 C-40.1925 162.375 -43.8225 162.375 -47.5625 162.375 C-50.60969277 156.58416622 -52.94566463 150.82597585 -55.015625 144.625 C-55.32070984 143.72628174 -55.62579468 142.82756348 -55.94012451 141.90161133 C-56.90298301 139.06120039 -57.8578617 136.21818286 -58.8125 133.375 C-59.46822212 131.43601932 -60.1244671 129.49721538 -60.78125 127.55859375 C-62.38105034 122.83275034 -63.9737051 118.10455414 -65.5625 113.375 C-66.2225 113.375 -66.8825 113.375 -67.5625 113.375 C-67.8298999 113.97562256 -68.0972998 114.57624512 -68.37280273 115.19506836 C-69.57950028 117.90194194 -70.78970141 120.60723472 -72 123.3125 C-72.42087891 124.25802734 -72.84175781 125.20355469 -73.27539062 126.17773438 C-73.67822266 127.07685547 -74.08105469 127.97597656 -74.49609375 128.90234375 C-74.86790771 129.73499756 -75.23972168 130.56765137 -75.62280273 131.42553711 C-76.5625 133.375 -76.5625 133.375 -77.5625 134.375 C-80.08846259 134.61153523 -82.59357207 134.79673692 -85.125 134.9375 C-85.83591797 134.98068359 -86.54683594 135.02386719 -87.27929688 135.06835938 C-89.04011912 135.17471777 -90.8012832 135.27538846 -92.5625 135.375 C-90.62392473 155.53618279 -74.95742631 174.69683532 -60.18359375 187.37109375 C-39.37983394 203.27620371 -13.43446125 210.61138475 12.60205078 207.47412109 C31.70816242 204.79234738 48.95056189 197.20781258 63.4375 184.375 C64.10652344 183.84777344 64.77554688 183.32054687 65.46484375 182.77734375 C74.54470216 175.45951727 80.9378429 165.81502699 86.375 155.625 C86.74036865 154.94066895 87.1057373 154.25633789 87.48217773 153.55126953 C90.37143143 147.92394009 93.4375 141.78919857 93.4375 135.375 C92.75647217 135.3656543 92.07544434 135.35630859 91.3737793 135.34667969 C88.29011353 135.29301869 85.20797206 135.20936449 82.125 135.125 C81.05314453 135.11082031 79.98128906 135.09664062 78.87695312 135.08203125 C77.84892578 135.04980469 76.82089844 135.01757812 75.76171875 134.984375 C74.81385498 134.96342773 73.86599121 134.94248047 72.8894043 134.92089844 C70.4375 134.375 70.4375 134.375 68.69140625 132.63476562 C67.38183742 130.27468597 66.67285391 128.23216784 66.05078125 125.609375 C65.83486328 124.71992188 65.61894531 123.83046875 65.39648438 122.9140625 C65.18314453 121.99367188 64.96980469 121.07328125 64.75 120.125 C64.41258789 118.72121094 64.41258789 118.72121094 64.06835938 117.2890625 C63.51615953 114.98627165 62.97288166 112.68174829 62.4375 110.375 C58.46180788 114.88265093 55.8579827 119.91262664 53.0625 125.1875 C48.44568583 133.7803294 43.67126777 142.26526847 38.75 150.6875 C38.13785645 151.73719971 37.52571289 152.78689941 36.89501953 153.8684082 C32.57391531 161.23858469 32.57391531 161.23858469 31.4375 162.375 C25.60323034 162.93960674 25.60323034 162.93960674 23.4375 162.375 C20.94890327 158.85260496 19.79765695 155.58748769 18.84350586 151.40722656 C18.56989731 150.22960754 18.29628876 149.05198853 18.01438904 147.83868408 C17.72991409 146.57707458 17.44543915 145.31546509 17.15234375 144.015625 C16.84853583 142.70214133 16.54371571 141.38889141 16.2379303 140.0758667 C15.27394165 135.92777902 14.32361128 131.77662715 13.375 127.625 C12.27199684 122.79934383 11.1634546 117.97509213 10.04098701 113.15392303 C9.59436955 111.2226951 9.15796262 109.28911515 8.72166443 107.35552979 C8.31597984 105.60801422 8.31597984 105.60801422 7.90209961 103.82519531 C7.66688095 102.79436829 7.43166229 101.76354126 7.1893158 100.70147705 C6.94121658 99.93373962 6.69311737 99.1660022 6.4375 98.375 C5.4475 97.88 5.4475 97.88 4.4375 97.375 Z " fill="#000000" transform="translate(149.5625,39.625)"/>
<path d="M0 0 C0.67546875 0.3815625 1.3509375 0.763125 2.046875 1.15625 C5.26063079 3.4009512 5.26063079 3.4009512 8.234375 2.40625 C9.55153167 1.60132093 10.86559941 0.79121981 12.171875 -0.03125 C17.89213497 -2.35027431 26.09367385 -1.83589716 32.03515625 -0.31640625 C37.70718218 2.24977247 41.86579834 6.78297245 44.62109375 12.3125 C47.45959719 21.25185925 45.99517539 30.95928111 42.02734375 39.26171875 C37.26216823 47.81490721 31.18849612 54.94206154 24.484375 62.03125 C23.94828613 62.62647461 23.41219727 63.22169922 22.85986328 63.83496094 C21.09113205 65.7980202 19.29113592 67.7281957 17.484375 69.65625 C16.92741943 70.28499023 16.37046387 70.91373047 15.79663086 71.56152344 C12.67788044 74.81249696 10.44564145 76.46693558 5.859375 76.7421875 C2.39573082 76.48230407 1.55378393 76.08673793 -1.28125 73.8203125 C-2.01859375 72.89992188 -2.7559375 71.97953125 -3.515625 71.03125 C-4.29421875 70.27585937 -5.0728125 69.52046875 -5.875 68.7421875 C-19.05777684 55.86097745 -32.34519219 41.67562714 -32.953125 22.46875 C-32.78021458 15.26414937 -31.84997867 10.54733385 -26.8671875 5.29296875 C-19.59957281 -1.35578792 -9.45731477 -3.6419473 0 0 Z M-16.015625 15.46875 C-18.33536054 19.43163155 -18.37732033 22.55577811 -17.515625 27.03125 C-14.28574598 35.97740547 -8.75529241 42.98409622 -2.515625 50.03125 C-1.73832031 50.918125 -0.96101563 51.805 -0.16015625 52.71875 C1.70828912 54.83521909 3.58864649 56.93923353 5.484375 59.03125 C10.16646882 57.47055206 12.38042914 53.75120053 15.484375 50.03125 C16.59619141 48.76667969 16.59619141 48.76667969 17.73046875 47.4765625 C23.97240253 40.21360414 30.60353068 31.98496085 31.109375 22.03125 C30.87238343 19.19250311 30.45970173 17.98909982 28.984375 15.46875 C26.1483868 13.83805679 23.79462611 13.29077788 20.51171875 13.4375 C16.6036754 14.5820522 14.77832681 17.87114529 12.484375 21.03125 C10.27237585 23.57357436 9.68113882 23.98584297 6.234375 24.78125 C0.51507627 23.63739025 -1.39849199 19.68933859 -4.515625 15.03125 C-5.73152484 13.59969101 -5.73152484 13.59969101 -9.328125 13.71875 C-12.25682799 13.78184594 -13.41015129 13.97060262 -16.015625 15.46875 Z " fill="#000000" transform="translate(143.515625,345.96875)"/>
<path d="M0 0 C1.75697205 -0.01418472 1.75697205 -0.01418472 3.54943848 -0.02865601 C5.44792542 -0.01954697 5.44792542 -0.01954697 7.38476562 -0.01025391 C8.68297241 -0.01312408 9.9811792 -0.01599426 11.31872559 -0.01895142 C14.06594553 -0.02337316 16.8128727 -0.016949 19.56005859 -0.00292969 C23.08098403 0.01416268 26.60122345 0.00432061 30.12212372 -0.01364708 C33.48055934 -0.02709598 36.83881051 -0.01767904 40.19726562 -0.01025391 C41.46292358 -0.0163266 42.72858154 -0.02239929 44.03259277 -0.02865601 C45.20390747 -0.01919952 46.37522217 -0.00974304 47.58203125 0 C49.13065857 0.00358017 49.13065857 0.00358017 50.71057129 0.00723267 C53.29101562 0.38818359 53.29101562 0.38818359 55.12356567 1.61300659 C56.64660223 3.92887416 56.67147887 5.41433881 56.67919922 8.17919922 C56.6886557 9.1503064 56.69811218 10.12141357 56.70785522 11.12194824 C56.70178253 12.16886841 56.69570984 13.21578857 56.68945312 14.29443359 C56.6923233 15.37067993 56.69519348 16.44692627 56.69815063 17.55578613 C56.70019287 19.83211798 56.69465192 22.10846731 56.68212891 24.38476562 C56.66607817 27.87458432 56.6819729 31.36324479 56.70117188 34.85302734 C56.69918947 37.06266532 56.69534586 39.27230258 56.68945312 41.48193359 C56.69552582 42.52885376 56.70159851 43.57577393 56.70785522 44.65441895 C56.6936705 46.11107971 56.6936705 46.11107971 56.67919922 47.59716797 C56.67681244 48.45193726 56.67442566 49.30670654 56.67196655 50.18737793 C56.29101562 52.38818359 56.29101562 52.38818359 55.12356567 54.1633606 C52.54833871 55.88456718 50.66779102 55.76923342 47.58203125 55.77636719 C45.8250592 55.79055191 45.8250592 55.79055191 44.03259277 55.80502319 C42.76693481 55.7989505 41.50127686 55.79287781 40.19726562 55.78662109 C38.24995544 55.79092636 38.24995544 55.79092636 36.26330566 55.7953186 C33.51608572 55.79974035 30.76915855 55.79331618 28.02197266 55.77929688 C24.50104722 55.76220451 20.9808078 55.77204657 17.45990753 55.79001427 C14.10147191 55.80346317 10.74322074 55.79404623 7.38476562 55.78662109 C6.11910767 55.79269379 4.85344971 55.79876648 3.54943848 55.80502319 C2.37812378 55.79556671 1.20680908 55.78611023 0 55.77636719 C-1.54862732 55.77278702 -1.54862732 55.77278702 -3.12854004 55.76913452 C-5.70898438 55.38818359 -5.70898438 55.38818359 -7.54153442 54.1633606 C-9.06457098 51.84749303 -9.08944762 50.36202838 -9.09716797 47.59716797 C-9.10662445 46.62606079 -9.11608093 45.65495361 -9.12582397 44.65441895 C-9.11975128 43.60749878 -9.11367859 42.56057861 -9.10742188 41.48193359 C-9.11029205 40.40568726 -9.11316223 39.32944092 -9.11611938 38.22058105 C-9.11816162 35.94424921 -9.11262067 33.66789988 -9.10009766 31.39160156 C-9.08404692 27.90178286 -9.09994165 24.4131224 -9.11914062 20.92333984 C-9.11715822 18.71370186 -9.11331461 16.50406461 -9.10742188 14.29443359 C-9.11349457 13.24751343 -9.11956726 12.20059326 -9.12582397 11.12194824 C-9.11636749 10.15084106 -9.10691101 9.17973389 -9.09716797 8.17919922 C-9.09478119 7.32442993 -9.09239441 6.46966064 -9.0899353 5.58898926 C-8.70898438 3.38818359 -8.70898438 3.38818359 -7.54153442 1.61300659 C-4.96630746 -0.10819999 -3.08575977 0.00713377 0 0 Z M5.29101562 14.38818359 C5.29101562 23.29818359 5.29101562 32.20818359 5.29101562 41.38818359 C17.50101563 41.38818359 29.71101563 41.38818359 42.29101562 41.38818359 C42.29101562 32.47818359 42.29101562 23.56818359 42.29101562 14.38818359 C30.08101562 14.38818359 17.87101562 14.38818359 5.29101562 14.38818359 Z " fill="#000000" transform="translate(171.708984375,275.61181640625)"/>
<path d="M0 0 C1.75697205 -0.01418472 1.75697205 -0.01418472 3.54943848 -0.02865601 C5.44792542 -0.01954697 5.44792542 -0.01954697 7.38476562 -0.01025391 C8.68297241 -0.01312408 9.9811792 -0.01599426 11.31872559 -0.01895142 C14.06594553 -0.02337316 16.8128727 -0.016949 19.56005859 -0.00292969 C23.08098403 0.01416268 26.60122345 0.00432061 30.12212372 -0.01364708 C33.48055934 -0.02709598 36.83881051 -0.01767904 40.19726562 -0.01025391 C41.46292358 -0.0163266 42.72858154 -0.02239929 44.03259277 -0.02865601 C45.20390747 -0.01919952 46.37522217 -0.00974304 47.58203125 0 C49.13065857 0.00358017 49.13065857 0.00358017 50.71057129 0.00723267 C53.29101562 0.38818359 53.29101562 0.38818359 55.12356567 1.61300659 C56.64660223 3.92887416 56.67147887 5.41433881 56.67919922 8.17919922 C56.6886557 9.1503064 56.69811218 10.12141357 56.70785522 11.12194824 C56.70178253 12.16886841 56.69570984 13.21578857 56.68945312 14.29443359 C56.6923233 15.37067993 56.69519348 16.44692627 56.69815063 17.55578613 C56.70019287 19.83211798 56.69465192 22.10846731 56.68212891 24.38476562 C56.66607817 27.87458432 56.6819729 31.36324479 56.70117188 34.85302734 C56.69918947 37.06266532 56.69534586 39.27230258 56.68945312 41.48193359 C56.69552582 42.52885376 56.70159851 43.57577393 56.70785522 44.65441895 C56.6936705 46.11107971 56.6936705 46.11107971 56.67919922 47.59716797 C56.67681244 48.45193726 56.67442566 49.30670654 56.67196655 50.18737793 C56.29101562 52.38818359 56.29101562 52.38818359 55.12356567 54.1633606 C52.54833871 55.88456718 50.66779102 55.76923342 47.58203125 55.77636719 C45.8250592 55.79055191 45.8250592 55.79055191 44.03259277 55.80502319 C42.76693481 55.7989505 41.50127686 55.79287781 40.19726562 55.78662109 C38.24995544 55.79092636 38.24995544 55.79092636 36.26330566 55.7953186 C33.51608572 55.79974035 30.76915855 55.79331618 28.02197266 55.77929688 C24.50104722 55.76220451 20.9808078 55.77204657 17.45990753 55.79001427 C14.10147191 55.80346317 10.74322074 55.79404623 7.38476562 55.78662109 C6.11910767 55.79269379 4.85344971 55.79876648 3.54943848 55.80502319 C2.37812378 55.79556671 1.20680908 55.78611023 0 55.77636719 C-1.54862732 55.77278702 -1.54862732 55.77278702 -3.12854004 55.76913452 C-5.70898438 55.38818359 -5.70898438 55.38818359 -7.54153442 54.1633606 C-9.06457098 51.84749303 -9.08944762 50.36202838 -9.09716797 47.59716797 C-9.10662445 46.62606079 -9.11608093 45.65495361 -9.12582397 44.65441895 C-9.11975128 43.60749878 -9.11367859 42.56057861 -9.10742188 41.48193359 C-9.11029205 40.40568726 -9.11316223 39.32944092 -9.11611938 38.22058105 C-9.11816162 35.94424921 -9.11262067 33.66789988 -9.10009766 31.39160156 C-9.08404692 27.90178286 -9.09994165 24.4131224 -9.11914062 20.92333984 C-9.11715822 18.71370186 -9.11331461 16.50406461 -9.10742188 14.29443359 C-9.11349457 13.24751343 -9.11956726 12.20059326 -9.12582397 11.12194824 C-9.11636749 10.15084106 -9.10691101 9.17973389 -9.09716797 8.17919922 C-9.09478119 7.32442993 -9.09239441 6.46966064 -9.0899353 5.58898926 C-8.70898438 3.38818359 -8.70898438 3.38818359 -7.54153442 1.61300659 C-4.96630746 -0.10819999 -3.08575977 0.00713377 0 0 Z M5.29101562 14.38818359 C5.29101562 23.29818359 5.29101562 32.20818359 5.29101562 41.38818359 C17.50101563 41.38818359 29.71101563 41.38818359 42.29101562 41.38818359 C42.29101562 32.47818359 42.29101562 23.56818359 42.29101562 14.38818359 C30.08101562 14.38818359 17.87101562 14.38818359 5.29101562 14.38818359 Z " fill="#000000" transform="translate(80.708984375,275.61181640625)"/>
<path d="M0 0 C0.89168884 -0.00845947 1.78337769 -0.01691895 2.7020874 -0.02563477 C4.16560638 -0.01652573 4.16560638 -0.01652573 5.65869141 -0.00723267 C6.68818909 -0.01248962 7.71768677 -0.01774658 8.77838135 -0.02316284 C12.18915883 -0.03639127 15.59947148 -0.02761447 19.01025391 -0.01748657 C21.37532644 -0.01950648 23.74039836 -0.02241723 26.10546875 -0.02618408 C31.06532717 -0.0306113 36.02502366 -0.02416344 40.98486328 -0.01016235 C47.35078826 0.00692956 53.71633382 -0.00290947 60.08224487 -0.02087975 C64.96690747 -0.03170674 69.85147974 -0.02827619 74.73614502 -0.02049637 C77.08376103 -0.01849137 79.43138518 -0.0209641 81.7789917 -0.02793503 C85.05682179 -0.0355315 88.33403258 -0.02397012 91.61181641 -0.00723267 C92.58749573 -0.01330536 93.56317505 -0.01937805 94.56842041 -0.02563477 C95.46010925 -0.01717529 96.3517981 -0.00871582 97.27050781 0 C98.43303574 0.00169662 98.43303574 0.00169662 99.61904907 0.00342751 C102.19882501 0.48647656 103.08200924 1.29107733 104.63525391 3.38095093 C104.93342231 5.93282236 105.05592117 8.23597599 105.03369141 10.78720093 C105.03656158 11.50831055 105.03943176 12.22942017 105.04238892 12.97238159 C105.04442842 14.49546088 105.03890638 16.01856642 105.02636719 17.54159546 C105.01031034 19.87275771 105.026218 22.20218634 105.04541016 24.53329468 C105.0434277 26.01376725 105.03958398 27.49423875 105.03369141 28.97470093 C105.0397641 29.67164063 105.04583679 30.36858032 105.05209351 31.0866394 C105.00978855 33.99797715 104.96888402 35.9203673 103.23144531 38.31893921 C101.241296 39.6430673 100.01459914 39.78298894 97.63525391 39.75595093 C96.61431641 39.76755249 96.61431641 39.76755249 95.57275391 39.77938843 C93.63525391 39.38095093 93.63525391 39.38095093 90.63525391 36.38095093 C90.63525391 29.12095093 90.63525391 21.86095093 90.63525391 14.38095093 C62.91525391 14.38095093 35.19525391 14.38095093 6.63525391 14.38095093 C6.63525391 21.64095093 6.63525391 28.90095093 6.63525391 36.38095093 C3.63525391 39.38095093 3.63525391 39.38095093 1.69775391 39.77938843 C1.01712891 39.77165405 0.33650391 39.76391968 -0.36474609 39.75595093 C-1.38568359 39.76755249 -1.38568359 39.76755249 -2.42724609 39.77938843 C-5.07062188 39.23579099 -5.77309492 38.57825997 -7.36474609 36.38095093 C-7.66291449 33.82907949 -7.78541336 31.52592586 -7.76318359 28.97470093 C-7.76605377 28.25359131 -7.76892395 27.53248169 -7.7718811 26.78952026 C-7.77392061 25.26644098 -7.76839856 23.74333543 -7.75585938 22.2203064 C-7.73980253 19.88914415 -7.75571019 17.55971551 -7.77490234 15.22860718 C-7.77291989 13.7481346 -7.76907617 12.2676631 -7.76318359 10.78720093 C-7.76925629 10.09026123 -7.77532898 9.39332153 -7.78158569 8.67526245 C-7.7114317 3.84741259 -7.7114317 3.84741259 -6.11328125 1.69711876 C-3.91628535 0.04338288 -2.73251931 0.00398789 0 0 Z " fill="#000000" transform="translate(375.36474609375,219.61904907226563)"/>
</svg>
