<?xml version="1.0" encoding="UTF-8"?>
<svg version="1.1" xmlns="http://www.w3.org/2000/svg" width="512" height="512">
<style>path { stroke: #000000; stroke-width: 13px; }</style>
<path d="M0 0 C0.66525948 -0.00581376 1.33051895 -0.01162753 2.01593781 -0.01761746 C4.25529344 -0.03226843 6.49356169 -0.01830973 8.73291016 -0.00457001 C10.35043907 -0.00917694 11.9679638 -0.01552846 13.58547974 -0.02347898 C18.03825017 -0.04022408 22.49067903 -0.03190255 26.94345093 -0.01953411 C31.74243521 -0.01050705 36.54135955 -0.02444167 41.34033203 -0.0354538 C50.74463538 -0.05326873 60.14881125 -0.04938581 69.55311966 -0.03780323 C77.19411518 -0.02878086 84.8350749 -0.02753972 92.47607422 -0.0318985 C93.56231897 -0.03251143 94.64856373 -0.03312436 95.76772499 -0.03375587 C97.97419994 -0.03503473 100.18067488 -0.03633158 102.38714981 -0.03764623 C123.0921028 -0.04906074 143.79698503 -0.03592467 164.50192642 -0.01444477 C182.27947728 0.00342699 200.05692368 0.00032313 217.83447266 -0.01811981 C238.46379314 -0.03951115 259.09305156 -0.04796203 279.72238159 -0.03567076 C281.92087808 -0.03439652 284.11937458 -0.03313904 286.31787109 -0.0318985 C287.94055373 -0.03097285 287.94055373 -0.03097285 289.59601784 -0.03002849 C297.23053091 -0.02657038 304.86500472 -0.03241386 312.49951172 -0.04181671 C321.79958405 -0.05301879 331.0995213 -0.05003443 340.39957809 -0.02869374 C345.14740182 -0.01815915 349.89500006 -0.01410235 354.64282227 -0.02729034 C358.9853561 -0.03917042 363.3274545 -0.03272466 367.66994858 -0.01138014 C369.24458254 -0.00689537 370.81925296 -0.00922212 372.39386368 -0.01888329 C374.52775375 -0.03097616 376.6601352 -0.01864756 378.79394531 0 C379.9810611 0.00064941 381.16817688 0.00129882 382.39126587 0.00196791 C386.05613559 0.61332276 387.24265617 1.50938608 389.39697266 4.50336456 C389.89721864 6.6434474 389.89721864 6.6434474 389.89754391 8.99804688 C389.9073582 9.89877694 389.91717249 10.799507 389.92728418 11.72753191 C389.91767917 12.71312578 389.90807417 13.69871964 389.8981781 14.71417999 C389.9037125 15.76424839 389.90924689 16.81431678 389.914949 17.89620543 C389.92859767 21.42630416 389.91356284 24.95570104 389.89868164 28.48578644 C389.90246327 31.01187695 389.90796201 33.53796538 389.91505432 36.06404877 C389.9275923 42.21983471 389.92142321 48.37535897 389.90637874 54.53113186 C389.88952988 61.69763733 389.89272748 68.86409159 389.89647282 76.03061074 C389.90235328 88.81632925 389.8881726 101.60194933 389.86352539 114.38764191 C389.83960405 126.79816122 389.83252088 139.208549 389.84301758 151.61908722 C389.85442347 165.1288195 389.85636093 178.63849091 389.84191948 192.14822245 C389.84039362 193.58842627 389.83887326 195.02863009 389.83735847 196.46883392 C389.83660066 197.17746746 389.83584285 197.886101 389.83506207 198.61620829 C389.83031669 203.61326578 389.83217247 208.61029613 389.83642387 213.60735321 C389.84186121 220.33129226 389.83112225 227.05502177 389.80946922 233.77893639 C389.8038912 236.25091625 389.8034453 238.72291364 389.80842209 241.19489479 C389.81435047 244.56098426 389.80191628 247.92651051 389.78465271 251.29254913 C389.79366778 252.77093993 389.79366778 252.77093993 389.80286497 254.27919722 C389.79020506 255.63029231 389.79020506 255.63029231 389.77728939 257.00868225 C389.77626026 257.78570008 389.77523113 258.56271791 389.77417082 259.36328173 C389.29026886 262.10876242 388.28788051 263.47851218 386.39697266 265.50336456 C383.03964261 266.62247458 380.52160272 266.63103698 376.98225594 266.63479233 C376.3252034 266.63684496 375.66815086 266.6388976 374.99118763 266.64101243 C372.77406459 266.64669838 370.55700335 266.64522323 368.33987427 266.64380646 C366.74042529 266.64638917 365.14097697 266.64940207 363.54152954 266.65280986 C359.13414678 266.66089397 354.7267803 266.66267021 350.31939101 266.66340733 C345.57083303 266.6652554 340.82228355 266.67280144 336.07373047 266.67954254 C325.68547511 266.69313586 315.2972236 266.69915198 304.90896082 266.7035532 C298.42611134 266.70631363 291.94326336 266.71055059 285.46041489 266.71505737 C267.52123928 266.72725077 249.58206487 266.73755032 231.64288521 266.74093246 C229.92003022 266.74126181 229.92003022 266.74126181 228.16237008 266.74159782 C227.01101186 266.74181609 225.85965363 266.74203437 224.67340577 266.74225926 C222.34021322 266.74270273 220.00702067 266.7431493 217.67382812 266.74359894 C216.51647765 266.74382037 215.35912718 266.7440418 214.16670547 266.74426994 C195.40439632 266.74821978 176.64212596 266.76567916 157.87983181 266.78895846 C138.62994989 266.81265055 119.38008747 266.82513332 100.13019073 266.82630038 C89.31675408 266.82721829 78.50336798 266.83299972 67.68994522 266.85112 C58.4839652 266.86649202 49.27805136 266.87165859 40.07206096 266.86338189 C35.37275246 266.85946524 30.67357736 266.86045433 25.97428513 266.87443924 C21.67491563 266.88711734 17.3757806 266.88603462 13.07641171 266.87384853 C11.51854703 266.87188092 9.96066607 266.87501868 8.4028243 266.88369289 C6.28938634 266.89471851 4.1767857 266.88734577 2.06337166 266.87530136 C0.30068103 266.87619699 0.30068103 266.87619699 -1.49761951 266.87711072 C-4.94851767 266.46178365 -6.83419926 265.57013586 -9.60302734 263.50336456 C-10.76475496 261.17990933 -10.73129891 259.84198277 -10.73724842 257.25477791 C-10.74393519 255.90965596 -10.74393519 255.90965596 -10.75075704 254.53735983 C-10.75057268 253.54594028 -10.75038831 252.55452073 -10.75019836 251.53305817 C-10.7557134 249.96051885 -10.7557134 249.96051885 -10.76133984 248.35621107 C-10.77241107 244.82013367 -10.77622631 241.28408563 -10.7800293 237.74799347 C-10.78629124 235.22220007 -10.7929378 232.6964076 -10.79994202 230.17061615 C-10.81919362 222.57477926 -10.82977298 214.97894753 -10.83866981 207.38309246 C-10.84305091 203.80825689 -10.84841812 200.23342281 -10.85365868 196.65858841 C-10.87067069 184.77920654 -10.88516611 172.89982561 -10.89240742 161.02043343 C-10.89431738 157.93694431 -10.89623771 154.85345521 -10.89819336 151.76996613 C-10.8986771 151.00355837 -10.89916084 150.23715062 -10.89965924 149.44751839 C-10.90796425 137.02487117 -10.93330919 124.60232009 -10.96577404 112.17971487 C-10.99881484 99.43309041 -11.01685342 86.68651487 -11.02005166 73.93984735 C-11.02221938 66.78000641 -11.03100629 59.62030572 -11.05651283 52.46050644 C-11.08044013 45.72838153 -11.08406433 38.99655321 -11.07375145 32.2643795 C-11.07325374 29.78916141 -11.07964274 27.31393126 -11.0933075 24.83875084 C-11.11087965 21.46807206 -11.10399229 18.09831601 -11.09077454 14.72763824 C-11.10174378 13.74068014 -11.11271303 12.75372203 -11.12401468 11.7368561 C-11.11543378 10.83489264 -11.10685289 9.93292918 -11.09801197 9.0036335 C-11.09898878 8.22553153 -11.09996559 7.44742955 -11.100972 6.64574873 C-9.70832384 0.65394354 -5.48071547 0.00299821 0 0 Z M4.39697266 15.50336456 C4.39697266 51.14336456 4.39697266 86.78336456 4.39697266 123.50336456 C21.22697266 123.50336456 38.05697266 123.50336456 55.39697266 123.50336456 C59.35697266 118.55336456 59.35697266 118.55336456 63.39697266 113.50336456 C65.45631912 110.95901789 67.51775433 108.41668972 69.58447266 105.87836456 C70.70818849 104.49686872 71.83188585 103.11535785 72.95556641 101.73383331 C73.52259277 101.0369339 74.08961914 100.34003448 74.67382812 99.62201691 C76.38596455 97.51689932 78.09679235 95.41072591 79.80712891 93.30414581 C97.98328708 70.91705014 97.98328708 70.91705014 99.39697266 69.50336456 C105.68038558 68.91058976 105.68038558 68.91058976 108.44018555 71.19355011 C110.49495741 73.61902691 111.91906822 75.95845209 113.39306641 78.77289581 C113.94486572 79.81461945 114.49666504 80.85634308 115.06518555 81.92963409 C115.64905029 83.04709015 116.23291504 84.1645462 116.83447266 85.31586456 C118.09028376 87.68544976 119.34765998 90.05411504 120.60791016 92.42133331 C120.92568924 93.0194986 121.24346832 93.61766388 121.57087708 94.23395538 C124.60132114 99.92266931 127.76402293 105.53119566 130.95947266 111.12836456 C136.04661286 120.05453367 140.97413566 129.05779547 145.84521484 138.10346222 C149.91060868 145.64111871 154.08498554 153.10394256 158.39697266 160.50336456 C162.25733369 156.97232343 165.0637566 152.9048434 168.02197266 148.62836456 C169.08425071 147.1099801 170.14675456 145.59175357 171.20947266 144.07367706 C171.74056641 143.31216339 172.27166016 142.55064972 172.81884766 141.76605988 C175.20979122 138.33795577 177.60969693 134.91648765 180.02197266 131.50336456 C180.64193115 130.61415314 180.64193115 130.61415314 181.27441406 129.70697784 C184.16923909 125.61723135 184.16923909 125.61723135 186.39697266 124.50336456 C188.35341348 124.624188 190.30975052 124.75312763 192.26222229 124.92665863 C212.01785144 127.28177455 212.01785144 127.28177455 229.90429688 121.03607941 C235.78956859 115.09312677 239.41576618 107.31702758 242.85742188 99.79584503 C244.84322051 95.54901973 247.27159872 91.74837603 249.89697266 87.87836456 C250.54666016 86.83422394 251.19634766 85.79008331 251.86572266 84.71430206 C253.39697266 82.50336456 253.39697266 82.50336456 255.39697266 81.50336456 C260.80973195 81.0427042 260.80973195 81.0427042 262.9543457 82.72504425 C264.63780062 84.8002322 265.52982172 86.73072216 266.54150391 89.20648956 C266.96061035 90.22380157 267.3797168 91.24111359 267.81152344 92.28925323 C268.27284668 93.43240997 268.73416992 94.57556671 269.20947266 95.75336456 C269.70431152 96.96161896 270.19915039 98.16987335 270.70898438 99.41474152 C274.28204493 108.1614471 277.77116087 116.94190527 281.26481438 125.72054672 C282.0102398 127.59317286 282.75620638 129.46558255 283.50233459 131.33792877 C284.00328255 132.59521563 284.50421329 133.85250935 285.00512695 135.10980988 C285.37848285 136.04687869 285.37848285 136.04687869 285.75938129 137.00287819 C287.26863113 140.79290116 288.77191158 144.5852307 290.2709341 148.37930965 C291.44718282 151.35315372 292.62977594 154.32447666 293.81103516 157.29633331 C294.46033745 158.94761482 294.46033745 158.94761482 295.12275696 160.63225555 C295.52471786 161.64054916 295.92667877 162.64884277 296.34082031 163.68769073 C296.69101227 164.57284866 297.04120422 165.45800659 297.40200806 166.36998749 C298.31880227 168.65317033 298.31880227 168.65317033 300.39697266 170.50336456 C301.08472778 168.99153595 301.08472778 168.99153595 301.78637695 167.44916534 C303.50847307 163.66494956 305.23301563 159.88185274 306.95825195 156.09906769 C307.70076875 154.47013424 308.44264565 152.84090894 309.18383789 151.21137238 C320.72600035 125.83885072 320.72600035 125.83885072 323.39697266 124.50336456 C348.64197266 124.00836456 348.64197266 124.00836456 374.39697266 123.50336456 C374.39697266 87.86336456 374.39697266 52.22336456 374.39697266 15.50336456 C252.29697266 15.50336456 130.19697266 15.50336456 4.39697266 15.50336456 Z M101.39697266 89.50336456 C100.43979143 90.5498878 99.52316185 91.63353361 98.62353516 92.72992706 C98.05159424 93.42505402 97.47965332 94.12018097 96.89038086 94.83637238 C96.27380615 95.5927298 95.65723145 96.34908722 95.02197266 97.12836456 C94.38928467 97.90019073 93.75659668 98.67201691 93.10473633 99.46723175 C89.2492373 104.18571375 85.45333454 108.94602288 81.70947266 113.75336456 C78.04736462 118.45492967 74.30502806 123.07535078 70.45947266 127.62836456 C69.78621948 128.42742218 69.78621948 128.42742218 69.09936523 129.24262238 C67.87998846 130.6755571 66.63910601 132.09011073 65.39697266 133.50336456 C64.80454773 134.20866302 64.2121228 134.91396149 63.60174561 135.64063263 C60.80621751 138.00247195 59.33596051 138.01717883 55.71044922 138.049263 C53.97529053 138.078992 53.97529053 138.078992 52.20507812 138.10932159 C50.38967529 138.11101349 50.38967529 138.11101349 48.53759766 138.11273956 C46.86286377 138.13618439 46.86286377 138.13618439 45.15429688 138.16010284 C40.98540453 138.21268754 36.81613647 138.23096691 32.64697266 138.25336456 C18.66322266 138.37711456 18.66322266 138.37711456 4.39697266 138.50336456 C4.39697266 175.79336456 4.39697266 213.08336456 4.39697266 251.50336456 C126.49697266 251.50336456 248.59697266 251.50336456 374.39697266 251.50336456 C374.39697266 214.21336456 374.39697266 176.92336456 374.39697266 138.50336456 C359.87697266 138.50336456 345.35697266 138.50336456 330.39697266 138.50336456 C327.94259766 144.03086456 325.48822266 149.55836456 322.95947266 155.25336456 C320.54248047 160.67597199 320.54248047 160.67597199 319.52435303 162.95851898 C316.81368503 169.03723429 314.11748033 175.11928738 311.50634766 181.24164581 C311.10730225 182.16558136 310.70825684 183.08951691 310.29711914 184.0414505 C309.59396404 185.6734648 308.90251834 187.31059619 308.2253418 188.95355988 C306.35688241 193.25028374 304.82554626 195.72629363 300.39697266 197.50336456 C297.33447266 197.19086456 297.33447266 197.19086456 294.39697266 195.50336456 C291.15252803 190.46220065 289.10224671 184.53597945 286.91357422 178.97602081 C286.59112228 178.16530624 286.26867035 177.35459167 285.93644714 176.51931 C284.88346688 173.86948252 283.835496 171.21770535 282.78759766 168.56586456 C282.05375643 166.71629493 281.31960039 164.86685018 280.58514404 163.01752472 C278.66187907 158.17239031 276.74287083 153.32558111 274.82476807 148.47840118 C272.86314153 143.52345678 270.89746088 138.57012138 268.93212891 133.61664581 C265.08312518 123.91378215 261.23862011 114.20914291 257.39697266 104.50336456 C254.27273106 107.5419689 251.95728127 110.51559671 249.64697266 114.22211456 C248.95603516 115.31910675 248.26509766 116.41609894 247.55322266 117.54633331 C246.83385991 118.69829465 246.11511517 119.85064213 245.39697266 121.00336456 C243.98629902 123.26769946 242.56879641 125.52720409 241.14697266 127.78461456 C240.21111328 129.28605011 240.21111328 129.28605011 239.25634766 130.81781769 C235.82944684 135.76738557 235.82944684 135.76738557 233.39697266 137.50336456 C230.34191535 137.76487747 227.64461187 137.8016625 224.60791016 137.65570831 C222.84362993 137.62632882 221.0793017 137.59972593 219.31494141 137.57563019 C216.54787317 137.5181155 213.78631101 137.44152001 211.02148438 137.31513214 C200.89984408 136.53697531 200.89984408 136.53697531 191.61630249 139.71906281 C188.08242331 143.15997632 185.76994763 147.21525095 183.39697266 151.50336456 C182.49320087 152.78737107 181.57250636 154.06005339 180.61962891 155.30805206 C179.90677734 156.32125519 179.19392578 157.33445831 178.45947266 158.37836456 C177.63282275 159.53604021 176.80599268 160.69358722 175.97900391 161.85102081 C174.13504202 164.44393678 172.32956256 167.06054964 170.53369141 169.68695831 C169.57183197 171.0635261 168.60960107 172.43983441 167.64697266 173.81586456 C167.2113501 174.46861359 166.77572754 175.12136261 166.3269043 175.79389191 C164.2083423 178.78900342 162.83518547 180.35488383 159.31884766 181.54633331 C156.1864997 181.50026937 154.99000188 181.17969198 152.39697266 179.50336456 C150.95581055 177.43817902 150.95581055 177.43817902 149.61962891 174.86664581 C149.11302734 173.90887238 148.60642578 172.95109894 148.08447266 171.96430206 C147.28009766 170.4058255 147.28009766 170.4058255 146.45947266 168.81586456 C145.29605115 166.61301432 144.13063628 164.41121589 142.96337891 162.21039581 C142.07416748 160.52744415 142.07416748 160.52744415 141.16699219 158.81049347 C138.49827218 153.8242202 135.70268074 148.91346042 132.89697266 144.00336456 C128.41857164 136.14032195 124.05704494 128.2233447 119.77197266 120.25336456 C115.65868171 112.61404018 111.47806653 105.02165165 107.14697266 97.50336456 C106.68081543 96.68964386 106.2146582 95.87592316 105.734375 95.03754425 C104.65234617 93.1748007 103.52936018 91.33593063 102.39697266 89.50336456 C102.06697266 89.50336456 101.73697266 89.50336456 101.39697266 89.50336456 Z " fill="#000000" transform="translate(66.60302734375,86.49663543701172)"/>
<path d="M0 0 C0.69838321 -0.00205263 1.39676643 -0.00410527 2.11631277 -0.0062201 C4.46203687 -0.01188518 6.80770216 -0.01043346 9.15343189 -0.00901413 C10.85003868 -0.01159805 12.54664486 -0.01461128 14.24325019 -0.01801753 C18.91009877 -0.02608765 23.57693196 -0.02787711 28.24378669 -0.028615 C33.27529779 -0.03046553 38.3068009 -0.03801286 43.33830738 -0.04475021 C54.34246293 -0.05833408 65.34661484 -0.06435832 76.35077739 -0.06876087 C83.22129408 -0.07152317 90.09180936 -0.07576049 96.9623251 -0.08026505 C115.98330281 -0.09245771 135.00427939 -0.10275708 154.02526093 -0.10614014 C155.24272554 -0.1063597 156.46019015 -0.10657927 157.71454762 -0.10680549 C158.9349311 -0.10702377 160.15531458 -0.10724204 161.41267937 -0.10746694 C163.88565584 -0.1079104 166.35863231 -0.10835697 168.83160877 -0.10880661 C170.67163278 -0.10913875 170.67163278 -0.10913875 172.548829 -0.10947761 C192.42634126 -0.11342579 212.30381687 -0.13088043 232.18131497 -0.15416613 C252.58728694 -0.17787805 272.99324051 -0.19034191 293.39922649 -0.19150805 C304.8572189 -0.1924249 316.31516355 -0.19817956 327.77314281 -0.21632767 C337.52972726 -0.23172646 347.28624919 -0.2368504 357.04284348 -0.22858956 C362.02024414 -0.22468232 366.99751889 -0.22561638 371.97490406 -0.23964691 C376.53412672 -0.25238111 381.09312878 -0.25119249 385.65235112 -0.2390562 C387.29907335 -0.23709838 388.94581118 -0.24018157 390.5925115 -0.24890056 C403.15958983 -0.31121226 414.05035268 0.65856521 423.97833729 9.13142776 C432.02694338 17.57074289 435.09587176 26.62266105 435.10976505 38.23980522 C435.1136062 39.449606 435.11744734 40.65940677 435.12140489 41.90586817 C435.12062475 43.23981331 435.11974599 44.57375839 435.11877918 45.9077034 C435.12136452 47.33151116 435.12437815 48.7553182 435.12778258 50.17912424 C435.1358361 54.08734897 435.13764124 57.99555532 435.13838005 61.90378737 C435.14023349 66.12072474 435.1477823 70.33765263 435.15451527 74.5545845 C435.16808755 83.77374787 435.17412163 92.99290688 435.17852592 102.21207857 C435.1812903 107.97085442 435.18552802 113.7296286 435.1900301 119.48840332 C435.20222148 135.43922253 435.21252095 151.39004041 435.21590519 167.34086418 C435.21612476 168.3614282 435.21634432 169.38199223 435.21657054 170.43348243 C435.21678882 171.45646032 435.2170071 172.47943821 435.21723199 173.53341544 C435.21767545 175.60628804 435.21812202 177.67916064 435.21857166 179.75203323 C435.21879309 180.78024521 435.21901452 181.80845719 435.21924266 182.8678271 C435.22318957 199.52359777 435.2406409 216.17932467 435.26393119 232.83507843 C435.28766123 249.94371582 435.3001078 267.05233125 435.30127311 284.16098535 C435.30218895 293.76343761 435.30791848 303.36583283 435.32609272 312.96826935 C435.34151604 321.14594659 435.34660102 329.32354916 435.33835462 337.50123818 C435.33445597 341.67082143 435.33533916 345.84025441 435.34941196 350.00981903 C435.36219814 353.83326885 435.36091234 357.65645619 435.34882125 361.47990589 C435.34595517 363.50479013 435.35776417 365.52967911 435.37024331 367.55452693 C435.30311612 380.03749747 433.46786494 390.62519021 424.97833729 400.13142776 C417.08003703 407.4711056 408.65615059 410.25213663 397.95667458 410.26285553 C397.25829136 410.26490816 396.55990815 410.2669608 395.8403618 410.26907563 C393.49463771 410.27474071 391.14897242 410.27328899 388.80324268 410.27186966 C387.1066359 410.27445358 385.41002972 410.27746681 383.71342438 410.28087306 C379.04657581 410.28894318 374.37974261 410.29073264 369.71288788 410.29147053 C364.68137679 410.29332106 359.64987368 410.30086839 354.6183672 410.30760574 C343.61421164 410.32118961 332.61005973 410.32721385 321.60589719 410.3316164 C314.7353805 410.3343787 307.86486522 410.33861602 300.99434948 410.34312057 C281.97337177 410.35531324 262.95239519 410.36561261 243.93141365 410.36899567 C242.71394904 410.36921523 241.49648443 410.3694348 240.24212695 410.36966102 C239.02174347 410.3698793 237.80136 410.37009757 236.5439952 410.37032247 C234.07101874 410.37076593 231.59804227 410.3712125 229.1250658 410.37166214 C227.28504179 410.37199428 227.28504179 410.37199428 225.40784558 410.37233314 C205.53033332 410.37628132 185.65285771 410.39373596 165.77535961 410.41702166 C145.36938764 410.44073358 124.96343406 410.45319744 104.55744809 410.45436358 C93.09945567 410.45528043 81.64151102 410.46103509 70.18353176 410.4791832 C60.42694731 410.49458199 50.67042538 410.49970593 40.91383109 410.49144509 C35.93643043 410.48753785 30.95915569 410.48847191 25.98177052 410.50250244 C21.42254785 410.51523664 16.86354579 410.51404802 12.30432346 410.50191173 C10.65760123 410.49995391 9.01086339 410.5030371 7.36416308 410.51175609 C-5.20291525 410.57406779 -16.09367811 409.60429032 -26.02166271 401.13142776 C-34.0702688 392.69211264 -37.13919718 383.64019448 -37.15309048 372.02305031 C-37.15693162 370.81324953 -37.16077277 369.60344876 -37.16473031 368.35698736 C-37.16395018 367.02304222 -37.16307141 365.68909714 -37.16210461 364.35515213 C-37.16468994 362.93134437 -37.16770357 361.50753733 -37.17110801 360.08373129 C-37.17916153 356.17550656 -37.18096666 352.26730021 -37.18170547 348.35906816 C-37.18355891 344.14213079 -37.19110772 339.9252029 -37.19784069 335.70827103 C-37.21141297 326.48910766 -37.21744705 317.26994865 -37.22185135 308.05077696 C-37.22461572 302.29200111 -37.22885344 296.53322693 -37.23335552 290.77445221 C-37.2455469 274.823633 -37.25584637 258.87281512 -37.25923061 242.92199135 C-37.25945018 241.90142733 -37.25966975 240.8808633 -37.25989597 239.8293731 C-37.26011424 238.80639521 -37.26033252 237.78341732 -37.26055741 236.72944009 C-37.26100088 234.65656749 -37.26144744 232.58369489 -37.26189709 230.5108223 C-37.26211852 229.48261032 -37.26233995 228.45439834 -37.26256809 227.39502843 C-37.26651499 210.73925775 -37.28396632 194.08353086 -37.30725661 177.4277771 C-37.33098666 160.31913971 -37.34343322 143.21052428 -37.34459853 126.10187018 C-37.34551438 116.49941792 -37.3512439 106.8970227 -37.36941814 97.29458618 C-37.38484146 89.11690894 -37.38992644 80.93930637 -37.38168004 72.76161735 C-37.3777814 68.5920341 -37.37866458 64.42260112 -37.39273739 60.2530365 C-37.40552357 56.42958668 -37.40423776 52.60639934 -37.39214668 48.78294964 C-37.3892806 46.7580654 -37.4010896 44.73317642 -37.41356874 42.7083286 C-37.34644154 30.22535806 -35.51119037 19.63766532 -27.02166271 10.13142776 C-19.12336246 2.79174993 -10.69947601 0.0107189 0 0 Z M-17.39666271 22.44392776 C-17.85814709 22.97631058 -18.31963146 23.50869339 -18.79510021 24.05720901 C-22.98247103 31.13839979 -22.30527921 39.01831297 -22.28235912 46.97894669 C-22.28538161 48.3982199 -22.28927158 49.81749148 -22.29395169 51.2367602 C-22.30422779 55.12766941 -22.30205087 59.01848644 -22.2977711 62.9094032 C-22.29530319 67.10920986 -22.30431881 71.30899435 -22.31180859 75.50879288 C-22.32455551 83.73287942 -22.32634931 91.95693331 -22.32400832 100.18102806 C-22.32222511 106.86557929 -22.32397488 113.5501206 -22.32823277 120.23467064 C-22.32882795 121.18613669 -22.32942314 122.13760275 -22.33003637 123.11790111 C-22.33124812 125.05081252 -22.33246225 126.98372393 -22.33367874 128.91663534 C-22.34455412 147.04171004 -22.34239172 165.16676613 -22.3362939 183.29184187 C-22.33112394 199.87265614 -22.34238226 216.45341166 -22.36139212 233.03421431 C-22.38076417 250.06150697 -22.38902768 267.08877183 -22.38526887 284.11607558 C-22.38335596 293.67478561 -22.38585314 303.23344564 -22.39998341 312.79214668 C-22.41189005 320.92893012 -22.41331009 329.06563277 -22.40119324 337.20241731 C-22.39529971 341.35328075 -22.39421821 345.50399636 -22.40619564 349.65485001 C-22.41703783 353.45646957 -22.41397104 357.25781758 -22.39993396 361.05942435 C-22.3960287 363.08224182 -22.40684765 365.10507127 -22.41823083 367.12786049 C-22.36968255 375.27858514 -21.84892951 382.50500458 -16.27166271 388.94392776 C-15.82306896 389.48662308 -15.37447521 390.02931839 -14.91228771 390.58845901 C-9.99084267 394.60492759 -4.9879915 395.50658556 1.22044754 395.5117445 C1.91836089 395.51640442 2.61627424 395.52106434 3.33533648 395.52586547 C5.66757503 395.53779042 7.99922831 395.52843005 10.33147144 395.51910782 C12.02298304 395.52328183 13.71449183 395.52875972 15.40599543 395.53542763 C20.04943617 395.54989199 24.69269956 395.54563441 29.33615005 395.53826082 C34.34578711 395.53353393 39.35538555 395.54603473 44.36501026 395.55627823 C54.17729515 395.57348076 63.98951605 395.57430325 73.8018121 395.56906532 C81.77641222 395.56502523 89.75099341 395.56646528 97.72559261 395.57181358 C98.86023251 395.57256201 99.9948724 395.57331043 101.16389533 395.57408153 C103.46884874 395.57561299 105.77380216 395.57715134 108.07875556 395.5786965 C129.69755489 395.59242671 151.31631803 395.5869801 172.93511654 395.57551128 C192.71687393 395.56557757 212.4985378 395.57852106 232.28028076 395.60244548 C252.58913361 395.62682247 272.89794287 395.63644784 293.20681006 395.62979275 C304.6099428 395.62629752 316.0130036 395.62855268 327.4161253 395.64604378 C337.12296957 395.66074821 346.82969123 395.66142416 356.53653305 395.64397287 C361.4894263 395.63544617 366.44210038 395.63335409 371.39498234 395.64862442 C375.92941845 395.66243164 380.46344678 395.65775954 384.99785907 395.63838518 C386.63775319 395.63461268 388.27767967 395.63758307 389.91754507 395.64799684 C399.25339851 395.7030649 406.51372805 395.65713696 414.00177479 389.45564651 C414.44779041 388.91552933 414.89380604 388.37541214 415.35333729 387.81892776 C415.81482166 387.28654495 416.27630604 386.75416214 416.75177479 386.20564651 C420.9391456 379.12445574 420.26195379 371.24454256 420.2390337 363.28390884 C420.24205619 361.86463563 420.24594616 360.44536405 420.25062627 359.02609533 C420.26090236 355.13518612 420.25872545 351.24436909 420.25444567 347.35345232 C420.25197777 343.15364567 420.26099338 338.95386118 420.26848316 334.75406265 C420.28123009 326.52997611 420.28302388 318.30592222 420.2806829 310.08182747 C420.27889968 303.39727624 420.28064946 296.71273493 420.28490734 290.02818489 C420.28580012 288.60098581 420.28580012 288.60098581 420.28671094 287.14495442 C420.2879227 285.21204301 420.28913683 283.2791316 420.29035332 281.34622019 C420.3012287 263.22114549 420.29906629 245.0960894 420.29296847 226.97101366 C420.28779852 210.39019939 420.29905684 193.80944386 420.31806669 177.22864122 C420.33743874 160.20134856 420.34570226 143.1740837 420.34194344 126.14677995 C420.34003054 116.58806992 420.34252771 107.02940989 420.35665798 97.47070885 C420.36856463 89.33392541 420.36998466 81.19722276 420.35786781 73.06043822 C420.35197429 68.90957478 420.35089279 64.75885917 420.36287022 60.60800552 C420.37371241 56.80638596 420.37064562 53.00503795 420.35660853 49.20343118 C420.35270327 47.18061371 420.36352222 45.15778425 420.37490541 43.13499504 C420.32635712 34.98427039 419.80560408 27.75785095 414.22833729 21.31892776 C413.55544666 20.5048848 413.55544666 20.5048848 412.86896229 19.67439651 C407.94751725 15.65792794 402.94466607 14.75626997 396.73622704 14.75111103 C396.03831369 14.74645111 395.34040034 14.74179119 394.6213381 14.73699006 C392.28909955 14.72506511 389.95744627 14.73442548 387.62520313 14.74374771 C385.93369154 14.7395737 384.24218275 14.7340958 382.55067915 14.7274279 C377.90723841 14.71296354 373.26397501 14.71722112 368.62052453 14.72459471 C363.61088746 14.7293216 358.60128903 14.7168208 353.59166431 14.7065773 C343.77937942 14.68937477 333.96715853 14.68855228 324.15486247 14.6937902 C316.18026236 14.6978303 308.20568117 14.69639025 300.23108196 14.69104195 C298.52912212 14.68991931 298.52912212 14.68991931 296.79277925 14.688774 C294.48782583 14.68724254 292.18287242 14.68570419 289.87791901 14.68415903 C268.25911969 14.67042882 246.64035654 14.67587543 225.02155804 14.68734425 C205.23980065 14.69727796 185.45813678 14.68433447 165.67639381 14.66041005 C145.36754097 14.63603305 125.0587317 14.62640769 104.74986452 14.63306278 C93.34673178 14.63655801 81.94367097 14.63430285 70.54054928 14.61681175 C60.83370501 14.60210732 51.12698334 14.60143137 41.42014153 14.61888266 C36.46724827 14.62740936 31.5145742 14.62950144 26.56169224 14.61423111 C22.02725613 14.60042389 17.49322779 14.60509599 12.95881551 14.62447035 C11.31892138 14.62824285 9.6789949 14.62527246 8.0391295 14.61485869 C-6.15991435 14.44578971 -6.15991435 14.44578971 -17.39666271 22.44392776 Z " fill="#000000" transform="translate(57.02166271209717,50.86857223510742)"/>
<path d="M0 0 C5.80358518 6.04540123 8.58502505 12.64276304 9.375 20.9375 C8.92642557 29.98076042 5.64346738 37.79391393 -1 44 C-9.1496824 49.8643857 -17.11612086 51.36125282 -27 50 C-34.38207867 48.1074431 -41.19678159 43.33445621 -45.3515625 36.91015625 C-49.49824331 28.90020087 -50.39263252 20.226322 -48.0625 11.4375 C-45.26504477 4.1352225 -39.43536793 -2.22575077 -32.375 -5.5625 C-20.91612714 -9.72398395 -9.20172741 -8.23408544 0 0 Z M-29 10 C-32.49809728 13.58779208 -33.84009874 16.30504666 -34.3125 21.3125 C-33.88261266 26.38517063 -31.68373932 29.04686239 -28.4375 32.8125 C-25.39540378 35.32553601 -21.87189662 35.33417422 -18.0625 35.28515625 C-13.85576079 34.70354269 -11.13914644 32.09986553 -8.1875 29.25 C-6.43953563 25.93806752 -5.8926342 22.70054127 -6 19 C-7.7187906 13.84362819 -10.55301606 11.05185172 -15 8 C-20.16961373 6.20187349 -24.34890052 7.40173121 -29 10 Z " fill="#000000" transform="translate(190,380)"/>
<path d="M0 0 C6.2166731 6.4893342 9.13815609 12.88046395 9.4375 21.8125 C9.22471375 30.1643605 7.489042 36.66317651 1.75 42.875 C-5.41377475 49.42120796 -13.04591205 51.35945219 -22.56640625 51.28515625 C-29.44174756 50.71416659 -36.20776542 48.05846983 -41 43 C-47.32233625 33.59397524 -48.83013019 26.24134636 -48 15 C-46.07728805 7.57039025 -41.60964285 1.60858579 -35.3125 -2.75 C-24.17151225 -9.18470134 -10.12774815 -7.9575164 0 0 Z M-27 10 C-29.95047685 12.71595177 -32.74019843 15.8704789 -33.23828125 19.953125 C-33.41759456 25.50239994 -32.81427422 28.67028332 -29 33 C-25.55830753 35.86807706 -22.55242397 36.54304017 -18.05859375 36.34765625 C-14.28238182 35.70992786 -12.09248814 34.30420685 -9 32 C-6.25793917 28.1080427 -5.45176467 24.63248082 -5.6484375 19.95703125 C-6.44260413 15.53617036 -8.93655459 12.7907671 -12.4375 10.1875 C-17.8703694 7.66982881 -21.37315506 7.6889744 -27 10 Z " fill="#000000" transform="translate(112,379)"/>
<path d="M0 0 C0.78391113 -0.00524185 1.56782227 -0.0104837 2.37548828 -0.0158844 C4.02961037 -0.02229565 5.6837781 -0.02097918 7.33789062 -0.01245117 C9.86671121 -0.00393417 12.3932771 -0.03272266 14.921875 -0.06445312 C16.53124932 -0.06606514 18.14062764 -0.06548759 19.75 -0.0625 C20.88139404 -0.07935097 20.88139404 -0.07935097 22.03564453 -0.09654236 C25.53305962 -0.05017134 27.5097706 0.16071748 30.34765625 2.28100586 C31.875 4.43359375 31.875 4.43359375 32.4375 7.37109375 C31.67182321 11.53977848 30.17244687 12.81532983 26.875 15.43359375 C24.0659578 15.8980155 21.88257575 16.06952249 19.08984375 15.9921875 C18.35173965 15.98985611 17.61363556 15.98752472 16.85316467 15.98512268 C15.29904557 15.97541412 13.74496032 15.95369326 12.19116211 15.9206543 C9.81636 15.87117417 7.44363093 15.85916694 5.06835938 15.85351562 C3.55466553 15.83943051 2.0409896 15.82322641 0.52734375 15.8046875 C-0.18003433 15.7993248 -0.88741241 15.7939621 -1.6162262 15.78843689 C-5.23889852 15.70124714 -8.10064352 15.53698731 -11.125 13.43359375 C-12.67960305 10.32438766 -12.85220693 6.80276347 -12.125 3.43359375 C-8.63471795 -0.23454064 -4.75771804 -0.01851734 0 0 Z " fill="#000000" transform="translate(408.125,393.56640625)"/>
</svg>
