<?xml version="1.0" encoding="UTF-8"?>
<svg version="1.1" xmlns="http://www.w3.org/2000/svg" width="512" height="512" stroke="#000000" stroke-width="15" stroke-linejoin="round">
<path d="M0 0 C1.03863693 -0.00861557 2.07727386 -0.01723114 3.14738464 -0.02610779 C6.55692972 -0.04868109 9.96564707 -0.04204435 13.37524414 -0.03295898 C15.75981387 -0.0381984 18.14438151 -0.04447604 20.52894592 -0.05174255 C25.51776914 -0.06213092 30.50630684 -0.05760753 35.49511719 -0.04296875 C41.87159273 -0.02578477 48.24716683 -0.04928094 54.62354183 -0.08445835 C59.545394 -0.10647382 64.46703186 -0.10498069 69.38891792 -0.09669304 C71.73913118 -0.09587579 74.08936052 -0.1026957 76.43952751 -0.11746407 C79.73237555 -0.13498566 83.0236211 -0.12030246 86.31640625 -0.09765625 C87.27619385 -0.10934845 88.23598145 -0.12104065 89.22485352 -0.13308716 C97.87805051 -0.01269027 104.66024428 3.01787806 111.09790039 8.78344727 C118.40949959 16.83433752 118.76361134 25.08003785 118.47290039 35.59594727 C118.45485352 36.84311523 118.43680664 38.0902832 118.41821289 39.37524414 C118.3714152 42.42879318 118.30586407 45.48070287 118.22290039 48.53344727 C119.69296036 48.51679268 119.69296036 48.51679268 121.19271851 48.49980164 C130.46067051 48.39813119 139.72850831 48.32334129 148.99689293 48.27438641 C153.76110582 48.24837127 158.52486597 48.21312231 163.28881836 48.15625 C167.89244619 48.10164003 172.49564049 48.07196602 177.09956741 48.05906105 C178.84975629 48.0498729 180.59992334 48.03193104 182.34992599 48.00479698 C200.78834243 47.73046065 200.78834243 47.73046065 208.22290039 53.53344727 C214.00814096 59.70696055 216.46607628 65.22059398 216.49705505 73.74906921 C216.50229173 74.4649909 216.50752841 75.18091258 216.51292378 75.91852885 C216.52789771 78.31195374 216.52862835 80.70516434 216.52929688 83.09863281 C216.53692026 84.8171169 216.54534806 86.53559758 216.55451965 88.2540741 C216.57645717 92.91959651 216.58526285 97.58505339 216.5903461 102.25062156 C216.59399133 105.16791607 216.60023234 108.08519347 216.60734749 111.00248146 C216.63184187 121.18720884 216.64489333 131.3718853 216.6484375 141.55664062 C216.65207012 151.03779651 216.68194589 160.51862815 216.72384208 169.99968499 C216.75858378 178.14850585 216.77398663 186.29721949 216.77468354 194.44611388 C216.77547519 199.30904176 216.78416219 204.17163948 216.8126812 209.03449059 C216.83892753 213.61224188 216.84103058 218.18939087 216.82502556 222.7671833 C216.82321613 224.44167269 216.82985591 226.11619723 216.84584427 227.79061127 C216.9265551 236.79671893 216.93457247 245.02284147 211.22290039 252.53344727 C205.79322716 257.63579989 200.38035379 260.77767024 192.79420948 260.79350948 C191.7105686 260.80057507 190.62692772 260.80764067 189.51044923 260.81492037 C188.32564066 260.81250528 187.1408321 260.8100902 185.92012024 260.80760193 C184.65700254 260.81283861 183.39388484 260.81807529 182.09249085 260.82347065 C178.58858449 260.83764503 175.08476686 260.83931405 171.58083594 260.83887374 C167.80085583 260.84052247 164.02091221 260.85359009 160.24095154 260.86506653 C151.97637747 260.8879121 143.71182908 260.89583676 135.44722772 260.90089297 C130.28530702 260.90415072 125.12339377 260.9106737 119.96147728 260.91789436 C105.66546144 260.93746026 91.36945252 260.95386435 77.07342243 260.9567709 C76.15865417 260.95695847 75.24388591 260.95714604 74.30139739 260.95733929 C72.44698759 260.95770554 70.59257778 260.95806924 68.73816798 260.9584304 C67.35739641 260.95870462 67.35739641 260.95870462 65.94873047 260.95898438 C64.56627052 260.9592552 64.56627052 260.9592552 63.15588208 260.95953149 C48.22521472 260.96307241 33.29469165 260.99008965 18.36407433 261.02748226 C3.02959174 261.06557849 -12.30481928 261.08492847 -27.63935024 261.08523041 C-36.24693539 261.08581471 -44.85434845 261.09428883 -53.46188927 261.12322807 C-60.79209018 261.14775966 -68.12205622 261.15501297 -75.4522871 261.13998055 C-79.19034946 261.13281864 -82.92794822 261.13363729 -86.6659584 261.15639114 C-90.72411219 261.18085639 -94.78121444 261.16632539 -98.83940125 261.1481781 C-100.59988368 261.16797805 -100.59988368 261.16797805 -102.39593142 261.188178 C-109.82022271 261.11243325 -115.62899466 259.86866723 -121.77709961 255.53344727 C-127.58549025 249.40577579 -130.02040576 243.81044017 -130.05125427 235.31782532 C-130.05649095 234.60190364 -130.06172763 233.88598195 -130.067123 233.14836568 C-130.08209693 230.75494079 -130.08282757 228.36173019 -130.08349609 225.96826172 C-130.09111947 224.24977763 -130.09954728 222.53129695 -130.10871887 220.81282043 C-130.13065639 216.14729802 -130.13946207 211.48184114 -130.14454532 206.81627297 C-130.14819055 203.89897846 -130.15443156 200.98170106 -130.16154671 198.06441307 C-130.18604109 187.87968569 -130.19909254 177.69500923 -130.20263672 167.51025391 C-130.20626933 158.02909802 -130.23614511 148.54826638 -130.2780413 139.06720954 C-130.312783 130.91838868 -130.32818585 122.76967504 -130.32888275 114.62078065 C-130.32967441 109.75785277 -130.33836141 104.89525505 -130.36688042 100.03240395 C-130.39312675 95.45465265 -130.3952298 90.87750366 -130.37922478 86.29971123 C-130.37741535 84.62522184 -130.38405513 82.9506973 -130.40004349 81.27628326 C-130.48075432 72.2701756 -130.48877168 64.04405306 -124.77709961 56.53344727 C-118.39900623 50.53984874 -112.63555972 48.22002275 -103.86572266 48.30639648 C-103.08470688 48.30610443 -102.3036911 48.30581238 -101.49900818 48.30551147 C-98.92883016 48.30689991 -96.35894547 48.32243806 -93.78881836 48.33813477 C-92.00234638 48.34186663 -90.21587235 48.34471278 -88.42939758 48.34671021 C-83.73581251 48.35433302 -79.04235193 48.3739699 -74.34881592 48.39611816 C-69.5560474 48.41660572 -64.7632587 48.42571814 -59.97045898 48.43579102 C-50.57261794 48.45721707 -41.17486914 48.4913367 -31.77709961 48.53344727 C-31.81637573 47.38513428 -31.81637573 47.38513428 -31.85644531 46.21362305 C-31.96132683 42.69544565 -32.0257146 39.17759844 -32.08959961 35.65844727 C-32.13149414 34.45446289 -32.17338867 33.25047852 -32.21655273 32.01000977 C-32.35092722 22.12004794 -30.2329651 15.03306049 -23.52709961 7.65844727 C-16.47393811 1.35383859 -9.23642308 -0.06266899 0 0 Z M-14.65209961 17.65844727 C-21.79641586 27.3242869 -19.77709961 36.63540164 -19.77709961 48.53344727 C21.80290039 48.53344727 63.38290039 48.53344727 106.22290039 48.53344727 C107.23255852 31.97984427 107.23255852 31.97984427 101.09790039 17.65844727 C94.70291593 12.93171962 87.66156457 12.08733386 79.89868164 12.14526367 C79.01449554 12.14000671 78.13030945 12.13474976 77.21932983 12.1293335 C74.32450184 12.11623331 71.43023305 12.124836 68.53540039 12.13500977 C66.5071604 12.13298616 64.47892111 12.13007234 62.45068359 12.12631226 C58.21094804 12.12190241 53.97140279 12.12827676 49.73168945 12.14233398 C44.31487375 12.15942494 38.89850408 12.14957657 33.48170471 12.13161659 C29.29680053 12.12074254 25.11200095 12.1242417 20.92709351 12.13199997 C18.93053127 12.13399197 16.93395934 12.1315781 14.93740845 12.12456131 C12.14039175 12.11688703 9.34408349 12.12863423 6.54711914 12.14526367 C5.73334808 12.13919098 4.91957703 12.13311829 4.08114624 12.12686157 C-2.80879272 12.20221734 -9.04414986 13.51344093 -14.65209961 17.65844727 Z M-113.52709961 64.78344727 C-117.47278709 69.60595418 -118.0271707 74.26085402 -118.03106689 80.36474609 C-118.03418688 81.02717473 -118.03730686 81.68960337 -118.04052138 82.3721056 C-118.04845998 84.57832206 -118.0421941 86.7842603 -118.03588867 88.99047852 C-118.03860038 90.57766887 -118.04216232 92.16485796 -118.04650879 93.75204468 C-118.0556137 98.05363943 -118.05209637 102.35513807 -118.04575062 106.65673447 C-118.04068081 111.16227219 -118.0453848 115.66780179 -118.04852295 120.17333984 C-118.05215973 127.73902867 -118.04737105 135.30467843 -118.0378418 142.87036133 C-118.0269578 151.61249199 -118.03048358 160.35452935 -118.04149461 169.09665775 C-118.05057568 176.60764647 -118.05184874 184.11860713 -118.04661727 191.62959957 C-118.04350209 196.1133216 -118.04307583 200.5969998 -118.04969025 205.08071899 C-118.055475 209.29636621 -118.05144614 213.51189335 -118.03990173 217.72752762 C-118.03726119 219.27306545 -118.03800989 220.81861341 -118.04242706 222.36414719 C-118.04790797 224.4769499 -118.0410179 226.58936997 -118.03106689 228.70214844 C-118.03031284 229.88346848 -118.02955879 231.06478851 -118.02878189 232.28190613 C-117.65227734 237.14605474 -116.62258566 240.50007543 -113.52709961 244.28344727 C-106.75874096 249.82119525 -102.10594224 248.53344727 -92.77709961 248.53344727 C-92.77709961 186.49344727 -92.77709961 124.45344727 -92.77709961 60.53344727 C-104.4323416 59.88957327 -104.4323416 59.88957327 -113.52709961 64.78344727 Z M-80.77709961 60.53344727 C-80.77709961 122.57344727 -80.77709961 184.61344727 -80.77709961 248.53344727 C-72.19709961 248.53344727 -63.61709961 248.53344727 -54.77709961 248.53344727 C-54.77709961 186.49344727 -54.77709961 124.45344727 -54.77709961 60.53344727 C-63.35709961 60.53344727 -71.93709961 60.53344727 -80.77709961 60.53344727 Z M-42.77709961 60.53344727 C-42.77709961 122.57344727 -42.77709961 184.61344727 -42.77709961 248.53344727 C13.98290039 248.53344727 70.74290039 248.53344727 129.22290039 248.53344727 C129.22290039 186.49344727 129.22290039 124.45344727 129.22290039 60.53344727 C72.46290039 60.53344727 15.70290039 60.53344727 -42.77709961 60.53344727 Z M141.22290039 60.53344727 C141.22290039 122.57344727 141.22290039 184.61344727 141.22290039 248.53344727 C149.80290039 248.53344727 158.38290039 248.53344727 167.22290039 248.53344727 C167.22290039 186.49344727 167.22290039 124.45344727 167.22290039 60.53344727 C158.64290039 60.53344727 150.06290039 60.53344727 141.22290039 60.53344727 Z M179.22290039 60.53344727 C179.22290039 122.57344727 179.22290039 184.61344727 179.22290039 248.53344727 C190.87814238 249.17732126 190.87814238 249.17732126 199.97290039 244.28344727 C203.91858787 239.46094035 204.47297149 234.80604051 204.47686768 228.70214844 C204.47998766 228.0397198 204.48310764 227.37729116 204.48632216 226.69478893 C204.49426076 224.48857247 204.48799488 222.28263423 204.48168945 220.07641602 C204.48440116 218.48922566 204.4879631 216.90203657 204.49230957 215.31484985 C204.50141448 211.0132551 204.49789715 206.71175646 204.4915514 202.41016006 C204.48648159 197.90462234 204.49118558 193.39909274 204.49432373 188.89355469 C204.49796051 181.32786586 204.49317183 173.7622161 204.48364258 166.1965332 C204.47275858 157.45440254 204.47628436 148.71236518 204.48729539 139.97023678 C204.49637646 132.45924806 204.49764952 124.9482874 204.49241805 117.43729496 C204.48930287 112.95357293 204.48887661 108.46989473 204.49549103 103.98617554 C204.50127578 99.77052832 204.49724692 95.55500118 204.48570251 91.33936691 C204.48306197 89.79382908 204.48381067 88.24828112 204.48822784 86.70274734 C204.49370875 84.58994463 204.48681868 82.47752456 204.47686768 80.36474609 C204.47611362 79.18342606 204.47535957 78.00210602 204.47458267 76.7849884 C204.09807813 71.92083979 203.06838644 68.56681911 199.97290039 64.78344727 C193.20454174 59.24569928 188.55174302 60.53344727 179.22290039 60.53344727 Z " fill="#000000" transform="translate(212.777099609375,125.466552734375)"/>
<path d="M0 0 C3.78195783 0.00914866 7.56384523 -0.00496724 11.34578848 -0.01591969 C18.73202112 -0.03360605 26.1180902 -0.02990937 33.50432897 -0.01826912 C39.51303945 -0.00919585 45.52170444 -0.00802753 51.53041983 -0.01236439 C52.38912092 -0.01297732 53.247822 -0.01359025 54.13254434 -0.01422176 C55.87756484 -0.0155008 57.62258533 -0.01679765 59.36760581 -0.01811212 C75.6894172 -0.02948897 92.01113838 -0.01644985 108.33293498 0.00508934 C122.3050889 0.02295769 136.27710985 0.01985276 150.24926138 0.0014143 C166.51695805 -0.02004378 182.78457587 -0.0283906 199.05228472 -0.01613665 C200.79050015 -0.01486259 202.5287156 -0.01360511 204.26693106 -0.01236439 C205.12192656 -0.01174729 205.97692207 -0.01113018 206.85782653 -0.01049438 C212.85181911 -0.00705626 218.84576123 -0.01283645 224.839746 -0.0222826 C232.15517801 -0.03355904 239.47043859 -0.03034494 246.78585124 -0.00915962 C250.51061137 0.00127553 254.23508679 0.00560339 257.95984411 -0.00775623 C272.71802447 -0.05633387 286.73134092 -0.06933811 300.89867544 4.52289867 C301.81855749 4.8199596 302.73843954 5.11702053 303.6861968 5.42308331 C305.74177319 6.12463887 307.71918552 6.90871329 309.71117544 7.77289867 C310.41073355 8.07026928 311.11029165 8.36763988 311.83104849 8.67402172 C318.3794914 11.55983983 324.20071442 15.19056467 329.89867544 19.52289867 C331.4262145 20.68305492 331.4262145 20.68305492 332.98461294 21.86664867 C352.89352983 37.71354473 366.52966705 61.20725276 369.89867544 86.52289867 C370.58311269 95.86978334 370.45516961 105.25755823 370.42157412 114.62422323 C370.41242545 118.40618106 370.42654136 122.18806846 370.4374938 125.97001171 C370.45518017 133.35624436 370.45148349 140.74231343 370.43984324 148.1285522 C370.43076996 154.13726268 370.42960165 160.14592767 370.4339385 166.15464306 C370.43455144 167.01334415 370.43516437 167.87204524 370.43579587 168.75676757 C370.43707491 170.50178807 370.43837177 172.24680856 370.43968624 173.99182904 C370.45106308 190.31364043 370.43802396 206.63536162 370.41648477 222.95715821 C370.39861643 236.92931214 370.40172136 250.90133308 370.42015982 264.87348461 C370.44161789 281.14118128 370.44996472 297.4087991 370.43771076 313.67650795 C370.43643671 315.41472338 370.43517922 317.15293883 370.4339385 318.89115429 C370.43301285 320.17364755 370.43301285 320.17364755 370.4320685 321.48204976 C370.42863037 327.47604235 370.43441057 333.46998447 370.44385672 339.46396923 C370.45513316 346.77940125 370.45191905 354.09466183 370.43073374 361.41007447 C370.42029858 365.1348346 370.41597073 368.85931002 370.42933035 372.58406734 C370.47790799 387.3422477 370.49091223 401.35556415 365.89867544 415.52289867 C365.60161451 416.44278072 365.30455359 417.36266277 364.99849081 418.31042004 C364.29693525 420.36599642 363.51286083 422.34340876 362.64867544 424.33539867 C362.35130484 425.03495678 362.05393423 425.73451488 361.74755239 426.45527172 C358.86173428 433.00371464 355.23100944 438.82493765 350.89867544 444.52289867 C349.73851919 446.05043774 349.73851919 446.05043774 348.55492544 447.60883617 C332.70802938 467.51775306 309.21432136 481.15389029 283.89867544 484.52289867 C274.55179077 485.20733593 265.16401589 485.07939285 255.79735088 485.04579735 C252.01539305 485.03664868 248.23350566 485.05076459 244.4515624 485.06171703 C237.06532976 485.0794034 229.67926069 485.07570672 222.29302192 485.06406647 C216.28431143 485.05499319 210.27564644 485.05382488 204.26693106 485.05816174 C202.97887942 485.05908113 202.97887942 485.05908113 201.66480654 485.06001911 C199.91978604 485.06129815 198.17476555 485.062595 196.42974508 485.06390947 C180.10793369 485.07528631 163.7862125 485.06224719 147.46441591 485.04070801 C133.49226198 485.02283966 119.52024104 485.02594459 105.5480895 485.04438305 C89.28039284 485.06584112 73.01277501 485.07418795 56.74506617 485.06193399 C55.00685073 485.06065994 53.26863528 485.05940246 51.53041983 485.05816174 C50.67542432 485.05754463 49.82042881 485.05692753 48.93952435 485.05629173 C42.94553177 485.0528536 36.95158965 485.0586338 30.95760489 485.06807995 C23.64217287 485.07935639 16.32691229 485.07614228 9.01149964 485.05495697 C5.28673952 485.04452182 1.5622641 485.04019396 -2.16249323 485.05355358 C-34.97466658 485.16130856 -61.80134678 478.43826233 -86.10132456 455.52289867 C-109.16823047 430.97259045 -114.741666 403.16545704 -114.62422323 370.42157412 C-114.61507457 366.63961629 -114.62919047 362.85772889 -114.64014292 359.07578564 C-114.65782928 351.68955299 -114.65413261 344.30348392 -114.64249235 336.91724515 C-114.63341908 330.90853467 -114.63225077 324.89986967 -114.63658762 318.89115429 C-114.63720055 318.0324532 -114.63781348 317.17375211 -114.63844499 316.28902978 C-114.63972403 314.54400928 -114.64102089 312.79898879 -114.64233536 311.05396831 C-114.6537122 294.73215692 -114.64067308 278.41043573 -114.61913389 262.08863914 C-114.60126555 248.11648521 -114.60437047 234.14446427 -114.62280893 220.17231274 C-114.64426701 203.90461607 -114.65261383 187.63699824 -114.64035988 171.3692894 C-114.63908583 169.63107396 -114.63782834 167.89285852 -114.63658762 166.15464306 C-114.63566197 164.8721498 -114.63566197 164.8721498 -114.63471761 163.56374758 C-114.63127949 157.569755 -114.63705969 151.57581288 -114.64650583 145.58182812 C-114.65778227 138.2663961 -114.65456817 130.95113552 -114.63338286 123.63572288 C-114.6229477 119.91096275 -114.61861985 116.18648733 -114.63197947 112.46173 C-114.68055711 97.70354965 -114.69356134 83.6902332 -110.10132456 69.52289867 C-109.80426363 68.60301662 -109.5072027 67.68313457 -109.20113993 66.73537731 C-108.49958436 64.67980093 -107.71550994 62.70238859 -106.85132456 60.71039867 C-106.55395395 60.01084057 -106.25658335 59.31128246 -105.95020151 58.59052563 C-103.0643834 52.04208271 -99.43365856 46.2208597 -95.10132456 40.52289867 C-94.32788706 39.5045393 -93.55444956 38.48617992 -92.75757456 37.43696117 C-68.94039066 7.51473963 -36.56510861 -0.13114839 0 0 Z M-41.53882456 17.27289867 C-42.28124399 17.53530346 -43.02366343 17.79770824 -43.78858042 18.06806469 C-53.70182939 21.68475465 -62.03825848 26.74587719 -70.10132456 33.52289867 C-70.84124643 34.11715649 -71.58116831 34.7114143 -72.34351206 35.32367992 C-88.25516886 48.62009901 -98.94139016 69.5662073 -101.41318178 90.11553478 C-102.44771552 102.98130804 -102.24138416 115.87907814 -102.23071909 128.77680492 C-102.23152619 131.53444532 -102.23382131 134.29208405 -102.23602915 137.04972363 C-102.24045425 143.73546605 -102.23952495 150.42119718 -102.23661651 157.10694003 C-102.23434961 162.54508319 -102.23405551 167.9832232 -102.23514032 173.42136669 C-102.23529356 174.19807958 -102.23544679 174.97479247 -102.23560467 175.77504212 C-102.23592442 177.3533744 -102.23624864 178.93170669 -102.23657726 180.51003897 C-102.2394225 195.27799621 -102.23616004 210.04594723 -102.23077689 224.81390345 C-102.22630972 237.46006904 -102.22708593 250.10622544 -102.23169565 262.75239086 C-102.23705832 277.4708458 -102.2391479 292.1892953 -102.23608339 306.90775108 C-102.23576487 308.47997761 -102.2354505 310.05220413 -102.23514032 311.62443066 C-102.23498605 312.39780995 -102.23483177 313.17118925 -102.23467282 313.96800429 C-102.23381274 319.39378463 -102.23525955 324.8195615 -102.23761988 330.2453413 C-102.2404369 336.86588035 -102.2396397 343.48640756 -102.23433913 350.10694528 C-102.23172767 353.47883182 -102.23120009 356.85068254 -102.23398829 360.22257137 C-102.25864613 393.08327107 -99.55582012 422.05568903 -75.74585581 446.99946117 C-50.27475159 471.30423714 -19.64485419 472.83692665 13.72680044 472.78168774 C16.4982474 472.78330425 19.26968777 472.78789521 22.0411315 472.79230785 C28.74639481 472.80113799 35.45161301 472.79930858 42.15687799 472.79348257 C47.61300984 472.78894072 53.06912916 472.788364 58.52526236 472.7905302 C59.30582912 472.79083667 60.08639588 472.79114314 60.89061618 472.79145889 C62.47699341 472.79209843 64.06337063 472.79274686 65.64974785 472.79340407 C80.47793971 472.79908867 95.30610673 472.79257897 110.13429451 472.78180334 C122.82009016 472.77286954 135.5058492 472.77442211 148.19164419 472.78364086 C162.97169868 472.79437669 177.75173146 472.79853953 192.5317893 472.79241633 C194.11188904 472.79177933 195.69198878 472.79115058 197.27208853 472.7905302 C198.43783561 472.79006738 198.43783561 472.79006738 199.62713313 472.7895952 C205.06811646 472.78787817 210.50908587 472.7907618 215.95006704 472.79548931 C222.59309849 472.80113513 229.23608277 472.79950474 235.87910891 472.78892782 C239.25965319 472.78372036 242.64005523 472.78263042 246.02060843 472.78822613 C275.63858791 472.83270362 302.3125465 471.61478629 325.89867544 451.52289867 C326.63601919 450.92992992 327.37336294 450.33696117 328.13305044 449.72602367 C346.29368264 434.57128922 355.32185067 412.28127629 357.49333334 389.22327709 C358.38413949 378.10339794 358.17608947 366.92745901 358.1574645 355.78071117 C358.15908169 353.0304434 358.16367285 350.28018224 358.16808462 347.52991772 C358.1769089 340.87993543 358.17508802 334.22999867 358.16925934 327.58001471 C358.16471513 322.16825174 358.16414177 316.75650139 358.16630697 311.34473705 C358.16676667 310.18284931 358.16676667 310.18284931 358.16723566 308.99748909 C358.1678752 307.42319313 358.16852363 305.84889718 358.16918084 304.27460122 C358.17486373 289.56369024 358.16835846 274.85280431 358.15758011 260.14189744 C358.14864646 247.55990095 358.15019908 234.97794138 358.15941763 222.39594555 C358.17015652 207.73233656 358.17431459 193.06874944 358.1681931 178.40513706 C358.1675561 176.83711148 358.16692736 175.26908589 358.16630697 173.7010603 C358.16599842 172.9298595 358.16568987 172.1586587 358.16537197 171.36408818 C358.16365585 165.96814672 358.16653656 160.57221931 358.17126608 155.17628002 C358.17691534 148.58710004 358.17527445 141.99796761 358.16470459 135.40879297 C358.15950165 132.05647124 358.15840153 128.70429274 358.1640029 125.35196209 C358.73293216 98.7811641 358.73293216 98.7811641 353.14867544 73.02289867 C352.88627066 72.28499096 352.62386587 71.54708324 352.35350943 70.78681469 C348.72453854 60.90054934 343.66216154 52.56986082 336.89867544 44.52289867 C336.30441763 43.7829768 335.71015982 43.04305492 335.09789419 42.28071117 C320.18342632 24.43275583 298.10251779 15.18153361 275.38317251 12.92824078 C264.31273977 12.00090763 253.16994361 12.24573718 242.07055044 12.26410961 C239.29910349 12.2624931 236.52766311 12.25790214 233.75621939 12.25348949 C227.05095607 12.24465936 220.34573787 12.24648877 213.64047289 12.25231478 C208.18434105 12.25685663 202.72822172 12.25743335 197.27208853 12.25526714 C196.49152177 12.25496068 195.710955 12.25465421 194.9067347 12.25433846 C193.32035748 12.25369892 191.73398025 12.25305049 190.14760303 12.25239328 C175.31941117 12.24670867 160.49124416 12.25321838 145.66305637 12.26399401 C132.97726072 12.27292781 120.29150169 12.27137524 107.60570669 12.26215649 C92.82565221 12.25142066 78.04561942 12.24725782 63.26556158 12.25338101 C61.68546184 12.25401802 60.1053621 12.25464676 58.52526236 12.25526714 C57.35951528 12.25572997 57.35951528 12.25572997 56.17021775 12.25620215 C50.72923442 12.25791918 45.28826501 12.25503555 39.84728384 12.25030804 C33.20425239 12.24466222 26.56126812 12.24629261 19.91824198 12.25686952 C16.53769769 12.26207698 13.15729565 12.26316693 9.77674246 12.25757122 C-16.27374005 11.76049806 -16.27374005 11.76049806 -41.53882456 17.27289867 Z " fill="#000000" transform="translate(129.10132455825806,13.47710132598877)"/>
<path d="M0 0 C0.98976837 -0.00857025 1.97953674 -0.0171405 2.9992981 -0.02597046 C5.0852758 -0.0374146 7.17133328 -0.03848887 9.25732422 -0.02978516 C12.42946155 -0.02346906 15.59785512 -0.07040599 18.76953125 -0.12109375 C20.80468284 -0.1256411 22.83984436 -0.12704609 24.875 -0.125 C25.8127829 -0.14341949 26.7505658 -0.16183899 27.71676636 -0.18081665 C34.7310985 -0.08347516 39.28395241 1.9860614 44.5703125 6.6015625 C48.96459939 11.53547812 49.08322488 16.76455753 48.8203125 23.0390625 C48.80226563 23.86599609 48.78421875 24.69292969 48.765625 25.54492188 C48.7189339 27.56431183 48.64720643 29.58309695 48.5703125 31.6015625 C50.36275391 31.49714844 50.36275391 31.49714844 52.19140625 31.390625 C67.46605095 30.7631417 67.46605095 30.7631417 73.84375 35.60546875 C79.29386483 41.90639336 80.18758341 46.91486383 80.171875 55.03125 C80.18044525 56.02101837 80.1890155 57.01078674 80.19784546 58.0305481 C80.2092896 60.1165258 80.21036387 62.20258328 80.20166016 64.28857422 C80.19534406 67.46071155 80.24228099 70.62910512 80.29296875 73.80078125 C80.2975161 75.83593284 80.29892109 77.87109436 80.296875 79.90625 C80.31529449 80.8440329 80.33371399 81.7818158 80.35269165 82.74801636 C80.25535016 89.7623485 78.1858136 94.31520241 73.5703125 99.6015625 C68.63639688 103.99584939 63.40731747 104.11447488 57.1328125 103.8515625 C56.30587891 103.83351563 55.47894531 103.81546875 54.62695312 103.796875 C52.60756317 103.7501839 50.58877805 103.67845643 48.5703125 103.6015625 C48.67472656 105.39400391 48.67472656 105.39400391 48.78125 107.22265625 C49.4087333 122.49730095 49.4087333 122.49730095 44.56640625 128.875 C38.26548164 134.32511483 33.25701117 135.21883341 25.140625 135.203125 C24.15085663 135.21169525 23.16108826 135.2202655 22.1413269 135.22909546 C20.0553492 135.2405396 17.96929172 135.24161387 15.88330078 135.23291016 C12.71116345 135.22659406 9.54276988 135.27353099 6.37109375 135.32421875 C4.33594216 135.3287661 2.30078064 135.33017109 0.265625 135.328125 C-0.6721579 135.34654449 -1.6099408 135.36496399 -2.57614136 135.38394165 C-9.5904735 135.28660016 -14.14332741 133.2170636 -19.4296875 128.6015625 C-23.82397439 123.66764688 -23.94259988 118.43856747 -23.6796875 112.1640625 C-23.66164062 111.33712891 -23.64359375 110.51019531 -23.625 109.65820312 C-23.5783089 107.63881317 -23.50658143 105.62002805 -23.4296875 103.6015625 C-25.22212891 103.70597656 -25.22212891 103.70597656 -27.05078125 103.8125 C-42.32542595 104.4399833 -42.32542595 104.4399833 -48.703125 99.59765625 C-54.15323983 93.29673164 -55.04695841 88.28826117 -55.03125 80.171875 C-55.03982025 79.18210663 -55.0483905 78.19233826 -55.05722046 77.1725769 C-55.0686646 75.0865992 -55.06973887 73.00054172 -55.06103516 70.91455078 C-55.05471906 67.74241345 -55.10165599 64.57401988 -55.15234375 61.40234375 C-55.1568911 59.36719216 -55.15829609 57.33203064 -55.15625 55.296875 C-55.17466949 54.3590921 -55.19308899 53.4213092 -55.21206665 52.45510864 C-55.11472516 45.4407765 -53.0451886 40.88792259 -48.4296875 35.6015625 C-43.49577188 31.20727561 -38.26669247 31.08865012 -31.9921875 31.3515625 C-31.16525391 31.36960938 -30.33832031 31.38765625 -29.48632812 31.40625 C-27.46693817 31.4529411 -25.44815305 31.52466857 -23.4296875 31.6015625 C-23.49929687 30.40660156 -23.56890625 29.21164063 -23.640625 27.98046875 C-24.2681083 12.70582405 -24.2681083 12.70582405 -19.42578125 6.328125 C-13.12485664 0.87801017 -8.11638617 -0.01570841 0 0 Z M-9.4296875 15.6015625 C-12.42488461 20.10745669 -11.84720425 26.11094845 -11.9921875 31.3515625 C-12.05184542 33.26315466 -12.11542823 35.1746298 -12.18359375 37.0859375 C-12.20752197 37.92866211 -12.2314502 38.77138672 -12.25610352 39.63964844 C-12.4296875 41.6015625 -12.4296875 41.6015625 -13.4296875 42.6015625 C-14.91994523 42.72233863 -16.41534202 42.78110905 -17.91015625 42.8125 C-18.82732422 42.84085938 -19.74449219 42.86921875 -20.68945312 42.8984375 C-22.6215641 42.94999483 -24.55388038 42.99441641 -26.48632812 43.03125 C-31.76478042 43.20805789 -36.00485285 43.39761524 -40.4296875 46.6015625 C-43.48850812 52.41569183 -42.76452773 58.9301142 -42.74536133 65.32104492 C-42.74220192 67.52898565 -42.76568413 69.73558404 -42.79101562 71.94335938 C-42.7932891 73.35937332 -42.79399189 74.77539084 -42.79296875 76.19140625 C-42.79594971 77.46878662 -42.79893066 78.74616699 -42.80200195 80.06225586 C-42.39783514 83.90435838 -41.43635238 86.32159587 -39.4296875 89.6015625 C-34.92379331 92.59675961 -28.92030155 92.01907925 -23.6796875 92.1640625 C-21.76809534 92.22372042 -19.8566202 92.28730323 -17.9453125 92.35546875 C-16.68122559 92.39136108 -16.68122559 92.39136108 -15.39160156 92.42797852 C-13.4296875 92.6015625 -13.4296875 92.6015625 -12.4296875 93.6015625 C-12.30891137 95.09182023 -12.25014095 96.58721702 -12.21875 98.08203125 C-12.19039062 98.99919922 -12.16203125 99.91636719 -12.1328125 100.86132812 C-12.08125517 102.7934391 -12.03683359 104.72575538 -12 106.65820312 C-11.82319211 111.93665542 -11.63363476 116.17672785 -8.4296875 120.6015625 C-2.61555817 123.66038312 3.8988642 122.93640273 10.28979492 122.91723633 C12.49773565 122.91407692 14.70433404 122.93755913 16.91210938 122.96289062 C18.32812332 122.9651641 19.74414084 122.96586689 21.16015625 122.96484375 C22.43753662 122.96782471 23.71491699 122.97080566 25.03100586 122.97387695 C28.87310838 122.56971014 31.29034587 121.60822738 34.5703125 119.6015625 C37.56550961 115.09566831 36.98782925 109.09217655 37.1328125 103.8515625 C37.19247042 101.93997034 37.25605323 100.0284952 37.32421875 98.1171875 C37.36011108 96.85310059 37.36011108 96.85310059 37.39672852 95.56347656 C37.5703125 93.6015625 37.5703125 93.6015625 38.5703125 92.6015625 C40.06057023 92.48078637 41.55596702 92.42201595 43.05078125 92.390625 C43.96794922 92.36226563 44.88511719 92.33390625 45.83007812 92.3046875 C47.7621891 92.25313017 49.69450538 92.20870859 51.62695312 92.171875 C56.90540542 91.99506711 61.14547785 91.80550976 65.5703125 88.6015625 C68.62913312 82.78743317 67.90515273 76.2730108 67.88598633 69.88208008 C67.88282692 67.67413935 67.90630913 65.46754096 67.93164062 63.25976562 C67.9339141 61.84375168 67.93461689 60.42773416 67.93359375 59.01171875 C67.93657471 57.73433838 67.93955566 56.45695801 67.94262695 55.14086914 C67.53846014 51.29876662 66.57697738 48.88152913 64.5703125 45.6015625 C60.06441831 42.60636539 54.06092655 43.18404575 48.8203125 43.0390625 C46.90872034 42.97940458 44.9972452 42.91582177 43.0859375 42.84765625 C42.24321289 42.82372803 41.40048828 42.7997998 40.53222656 42.77514648 C38.5703125 42.6015625 38.5703125 42.6015625 37.5703125 41.6015625 C37.44953637 40.11130477 37.39076595 38.61590798 37.359375 37.12109375 C37.33101563 36.20392578 37.30265625 35.28675781 37.2734375 34.34179688 C37.22188017 32.4096859 37.17745859 30.47736962 37.140625 28.54492188 C36.96381711 23.26646958 36.77425976 19.02639715 33.5703125 14.6015625 C27.75618317 11.54274188 21.2417608 12.26672227 14.85083008 12.28588867 C12.64288935 12.28904808 10.43629096 12.26556587 8.22851562 12.24023438 C6.81250168 12.2379609 5.39648416 12.23725811 3.98046875 12.23828125 C2.70308838 12.23530029 1.42570801 12.23231934 0.10961914 12.22924805 C-3.73248338 12.63341486 -6.14972087 13.59489762 -9.4296875 15.6015625 Z " fill="#000000" transform="translate(243.4296875,212.3984375)"/>
</svg>
