<?xml version="1.0" encoding="UTF-8"?>
<svg version="1.1" xmlns="http://www.w3.org/2000/svg" width="512" height="512">
<style>path { stroke: #000000; stroke-width: 16px; }</style>
<path d="M0 0 C1.01795654 -0.01861084 2.03591309 -0.03722168 3.0847168 -0.05639648 C11.36131783 0.01313209 17.17447159 2.09339434 24 6.6875 C26.4581712 9.20153873 27.78324586 11.13222008 29.421875 14.17578125 C29.86112305 14.98571533 30.30037109 15.79564941 30.75292969 16.63012695 C31.24647949 17.55571411 31.24647949 17.55571411 31.75 18.5 C32.96030128 18.50546844 32.96030128 18.50546844 34.1950531 18.51104736 C41.83019446 18.54904567 49.46485424 18.60603125 57.09968472 18.68390274 C61.02407343 18.72327176 64.94824133 18.75551156 68.87280273 18.77099609 C72.66619238 18.78623312 76.45897451 18.82080119 80.25209236 18.86830902 C81.69317379 18.88305077 83.134342 18.89103685 84.57549858 18.89188385 C95.5318319 18.90478944 103.97984671 20.23385496 112.24609375 27.8671875 C116.57710756 32.56943106 117.98175571 37.18081413 118.75 43.5 C120.13952881 43.4685791 120.13952881 43.4685791 121.55712891 43.43652344 C125.06488412 43.3674783 128.57189552 43.31778608 132.08007812 43.28027344 C133.58507839 43.26042024 135.09000435 43.2333281 136.59472656 43.19824219 C155.85228951 42.76115464 172.37488093 47.77449412 186.63745117 61.24047852 C200.58578568 75.02468739 206.02575342 92.17861242 206.15589231 111.52400053 C206.15010064 112.86702494 206.1440198 114.21004813 206.13768005 115.55307007 C206.14186384 117.01805802 206.14734704 118.48304272 206.15399987 119.94802153 C206.16833622 123.93312546 206.16424717 127.91802051 206.15683305 131.9031353 C206.15207415 136.21681992 206.16463513 140.53046109 206.17485046 144.84413147 C206.19199065 153.27917401 206.19288845 161.7141419 206.18763756 170.14919733 C206.18358576 177.00943171 206.18505138 183.86964413 206.19038582 190.72987747 C206.19113424 191.70861429 206.19188266 192.6873511 206.19265376 193.69574661 C206.19418534 195.68444844 206.19572369 197.67315026 206.19726873 199.66185208 C206.21097643 218.28460801 206.20556822 236.90732186 206.19408352 255.53007682 C206.18415255 272.54155048 206.19709256 289.55291534 206.22101771 306.56437223 C206.2454399 324.06201602 206.25500894 341.55960921 206.24836498 359.05726969 C206.24487975 368.86877203 206.24705879 378.68019075 206.26461601 388.49168015 C206.27937704 396.84364804 206.27992261 405.19547339 206.2625451 413.54743861 C206.25406483 417.80266723 206.2518122 422.05764167 206.26719666 426.31285667 C206.28114317 430.21892666 206.27615462 434.12452707 206.25695742 438.03057058 C206.25322735 439.43284881 206.25603148 440.83516557 206.26656907 442.23740916 C206.39983583 461.35208663 201.30353485 479.46631109 187.86669922 493.51123047 C175.82636371 505.59270139 160.78463347 512.77582999 143.60400391 512.96826172 C142.03658447 512.95303467 142.03658447 512.95303467 140.4375 512.9375 C138.79273682 512.92614014 138.79273682 512.92614014 137.11474609 512.91455078 C118.88071693 512.54474146 103.29724256 505.46760367 90.59375 492.2578125 C79.52362466 479.27170392 74.53985076 464.45916528 74.25390625 447.53125 C74.85066745 443.88489808 75.89130992 442.75714077 78.75 440.5 C81.40232725 439.17383637 83.52552321 439.3040694 86.4921875 439.21875 C87.64074219 439.18136719 88.78929687 439.14398438 89.97265625 439.10546875 C91.17792969 439.07066406 92.38320313 439.03585937 93.625 439 C95.99751433 438.93104641 98.36992195 438.85828886 100.7421875 438.78125 C101.79776855 438.75095703 102.85334961 438.72066406 103.94091797 438.68945312 C107.43012494 438.46582798 107.43012494 438.46582798 110.75 437.5 C111.72424255 434.57727234 111.87884413 432.70544006 111.88701439 429.66263771 C111.89208893 428.66001353 111.89716347 427.65738935 111.90239179 426.62438262 C111.90288955 425.51982958 111.90338731 424.41527654 111.90390015 423.2772522 C111.9082824 422.10623722 111.91266465 420.93522225 111.9171797 419.72872198 C111.92824866 416.47289721 111.93479346 413.21709958 111.93936086 409.96126032 C111.94531699 406.45197229 111.95692659 402.94270198 111.96765137 399.4334259 C111.99217184 390.95702058 112.0068003 382.4806094 112.01971143 374.00417954 C112.02342308 371.61086 112.02739632 369.21754105 112.0314641 366.82422209 C112.05669605 351.96688953 112.07875239 337.10955606 112.09119225 322.2522068 C112.094122 318.81104148 112.09708366 315.36987619 112.10009766 311.92871094 C112.10121673 310.64576336 112.10121673 310.64576336 112.10235842 309.33689766 C112.11501965 295.47293759 112.14825363 281.60910554 112.18989949 267.74520536 C112.23228981 253.51709923 112.25588375 239.28905872 112.26111281 225.0608896 C112.26452981 217.06990042 112.27631915 209.07911146 112.30921555 201.08818436 C112.33717717 194.28480589 112.34823252 187.48166869 112.33702008 180.67823721 C112.33182369 177.20609722 112.3347826 173.73446282 112.35948563 170.26239586 C112.38202368 166.50007538 112.37395191 162.73904012 112.35800171 158.97671509 C112.3718838 157.87662349 112.38576588 156.7765319 112.40006864 155.6431042 C112.38421073 154.13134468 112.38421073 154.13134468 112.36803246 152.58904457 C112.36938898 151.72073151 112.37074551 150.85241845 112.37214315 149.95779288 C111.44505186 146.29529435 109.69867368 144.79125025 106.75 142.5 C103.73147583 141.75992524 103.73147583 141.75992524 100.40153503 141.87638092 C99.11277371 141.86457558 97.82401239 141.85277024 96.4961977 141.84060717 C95.06801784 141.85279904 93.63984193 141.86546019 92.21166992 141.87854004 C90.69298403 141.87421148 89.17430306 141.86769589 87.65563488 141.85917997 C83.48059569 141.84216104 79.30615474 141.85638847 75.13114691 141.87569475 C70.62936914 141.89110026 66.1276657 141.87772545 61.62588501 141.86795044 C52.80621605 141.85341017 43.98677696 141.86567169 35.16712976 141.88706368 C24.90063214 141.91105269 14.63418745 141.9093606 4.36766803 141.90675777 C-13.94796964 141.90306597 -32.26349887 141.9239072 -50.57910156 141.95800781 C-68.3597284 141.9911002 -86.14024142 142.00526629 -103.92089844 141.99902344 C-123.27354445 141.99226209 -142.62614274 141.99471239 -161.9787817 142.01438284 C-163.51329425 142.01594207 -163.51329425 142.01594207 -165.07880706 142.0175328 C-167.13358076 142.01962372 -169.18835445 142.0217347 -171.24312812 142.02386597 C-178.40278157 142.03076671 -185.56242034 142.03143002 -192.72207642 142.02998352 C-201.44493962 142.02854502 -210.16770991 142.0382127 -218.89054227 142.06192988 C-223.34277045 142.07380427 -227.79486898 142.08090547 -232.24711227 142.07509232 C-236.32067907 142.06993067 -240.39397167 142.0785725 -244.46749151 142.09836692 C-245.94318757 142.10311711 -247.41891025 142.10279343 -248.89460242 142.09695655 C-250.89691153 142.08980043 -252.89926258 142.10281919 -254.90153503 142.11688995 C-256.01482272 142.11846116 -257.12811041 142.12003236 -258.27513409 142.12165117 C-261.66573471 142.55287389 -263.54954252 143.4256971 -266.25 145.5 C-267.15837997 148.22513992 -267.37843431 149.81550999 -267.3886652 152.61731243 C-267.39687687 153.88029456 -267.39687687 153.88029456 -267.40525442 155.16879147 C-267.40623253 156.09388054 -267.40721064 157.01896961 -267.40821838 157.97209167 C-267.41315636 158.95470752 -267.41809434 159.93732336 -267.42318195 160.94971544 C-267.438595 164.25708393 -267.44692789 167.56443296 -267.45532227 170.87182617 C-267.4648978 173.23677238 -267.47490768 175.60171687 -267.48532104 177.96665955 C-267.50959558 183.73144544 -267.5293252 189.49623412 -267.54707379 195.26104351 C-267.56796668 201.96804214 -267.59442878 208.67501524 -267.62124526 215.38199238 C-267.66892121 227.3431092 -267.71218539 239.30423775 -267.75268555 251.26538086 C-267.79204045 262.88550734 -267.83346667 274.50562339 -267.87768555 286.12573242 C-267.88040982 286.84182319 -267.88313409 287.55791396 -267.88594092 288.29570445 C-267.89962039 291.88806977 -267.91334067 295.48043495 -267.92708123 299.07280004 C-268.04104606 328.88184499 -268.14778207 358.69091231 -268.25 388.5 C-267.52400504 388.49772168 -266.79801008 388.49544336 -266.05001527 388.49309599 C-223.0449336 388.35889859 -180.03987467 388.25591667 -137.03462567 388.19360802 C-131.87375074 388.18610356 -126.71287624 388.17833765 -121.55200195 388.17041016 C-120.52454202 388.16883629 -119.49708209 388.16726243 -118.43848702 388.16564088 C-101.79049334 388.13951563 -85.14262368 388.09219862 -68.49470363 388.03708322 C-51.41906984 387.98102227 -34.3435011 387.94765751 -17.26777905 387.93546903 C-6.72661682 387.92722627 3.81419495 387.90116996 14.35524932 387.8525012 C21.5785058 387.82084486 28.80158045 387.8111859 36.02490129 387.81899174 C40.1957851 387.82284413 44.3660555 387.81683875 48.5368309 387.78476715 C52.35360832 387.75563127 56.16935821 387.7540518 59.98618231 387.77460663 C61.36851694 387.77714802 62.75091493 387.7694814 64.13312431 387.75070091 C74.44384127 387.6187268 74.44384127 387.6187268 77.68505633 389.80559421 C79.56335126 391.95956461 80.64968389 393.90332815 81.125 396.73046875 C80.57309001 399.61074902 80.08804443 402.02366467 78.375 404.4375 C74.98834842 406.65184911 71.96127853 406.62448272 68.03971577 406.62304783 C66.84242133 406.62503888 65.6451269 406.62702993 64.41155082 406.62908131 C63.07623164 406.6262281 61.74091266 406.6232825 60.40559387 406.62025452 C58.99232279 406.62069036 57.57905178 406.6215655 56.1657812 406.62284368 C52.27321073 406.6250861 48.38066763 406.62107079 44.48810065 406.61606562 C40.29384016 406.6117577 36.09958129 406.61320779 31.90531921 406.6139679 C24.63547714 406.61449291 17.36564403 406.61134842 10.09580421 406.60573006 C-0.41523704 406.59761206 -10.92627395 406.59499953 -21.437318 406.59374207 C-38.4897086 406.59155202 -55.54209442 406.58489321 -72.59448242 406.57543945 C-89.16186499 406.56626412 -105.72924626 406.55918388 -122.29663086 406.55493164 C-123.31739518 406.55466892 -124.33815949 406.55440619 -125.38985606 406.55413551 C-130.51059652 406.5528305 -135.63133699 406.55156678 -140.75207746 406.55032361 C-183.25138828 406.53995247 -225.7506939 406.52233543 -268.25 406.5 C-268.22718063 410.89697976 -268.14984042 415.29136575 -268.0625 419.6875 C-268.05669922 420.93337891 -268.05089844 422.17925781 -268.04492188 423.46289062 C-267.89403303 430.42022353 -267.89403303 430.42022353 -265.4726181 436.82543182 C-260.37826109 439.47261118 -255.53484925 439.17245034 -249.87561035 439.10559082 C-247.96951673 439.11283259 -247.96951673 439.11283259 -246.02491617 439.12022066 C-242.49970467 439.13302853 -238.97523047 439.11478862 -235.45009732 439.09157586 C-231.64772582 439.07203423 -227.84541589 439.0814242 -224.04301453 439.08750916 C-217.45467148 439.0943052 -210.86654966 439.08339446 -204.27824402 439.0610199 C-194.74722344 439.02911448 -185.21640977 439.02946188 -175.68535 439.03866035 C-160.2148497 439.0531787 -144.74441935 439.04908344 -129.27392578 439.02978516 C-128.34798365 439.02863671 -127.42204151 439.02748827 -126.46804053 439.02630502 C-119.89535966 439.01803125 -113.32267977 439.00909288 -106.75 439 C-99.24202529 438.9896132 -91.73405034 438.97952698 -84.22607422 438.97021484 C-82.83885173 438.96848439 -82.83885173 438.96848439 -81.42360455 438.96671897 C-66.01116386 438.94809994 -50.59878373 438.94900162 -35.18633986 438.96387625 C-25.67747817 438.97210168 -16.16894484 438.96257347 -6.66013277 438.93028057 C-0.14709372 438.90927141 6.36580003 438.90580607 12.87886417 438.91622889 C16.63859283 438.92160575 20.39784969 438.91864558 24.15751076 438.89388847 C28.23053045 438.86721817 32.3025333 438.87893445 36.37561035 438.89440918 C37.56772047 438.88032532 38.75983058 438.86624146 39.98806524 438.85173082 C48.88065741 438.93619552 48.88065741 438.93619552 51.98628998 441.90674591 C54.70789526 445.90843209 54.35454529 447.73920587 53.75 452.5 C52.00746655 455.73613354 51.27814056 456.32395315 47.75 457.5 C45.42933859 457.59251458 43.10602772 457.62192659 40.78352356 457.62025452 C40.07042217 457.62110894 39.35732079 457.62196337 38.62261027 457.62284368 C36.22730401 457.624494 33.83206741 457.61898442 31.43676758 457.61352539 C29.72206117 457.6132434 28.00735465 457.61340149 26.29264832 457.6139679 C21.63180705 457.61425539 16.9709914 457.60836634 12.31015611 457.60139394 C7.44144714 457.59515249 2.57273762 457.59455597 -2.29597473 457.59336853 C-11.51819839 457.59025756 -20.74041022 457.5820473 -29.96262866 457.57201904 C-40.4606831 457.56085067 -50.9587381 457.55534562 -61.456797 457.55032361 C-83.05453794 457.53986451 -104.65226823 457.52226957 -126.25 457.5 C-126.47126808 458.66324547 -126.47126808 458.66324547 -126.69700623 459.84999084 C-127.25476308 462.5228252 -128.07467239 464.8427373 -129.09765625 467.37109375 C-129.45537109 468.27537109 -129.81308594 469.17964844 -130.18164062 470.11132812 C-130.93474103 471.9934288 -131.69254824 473.87365301 -132.45507812 475.75195312 C-135.18576487 482.41412571 -135.18576487 482.41412571 -135.25 489.5 C-134.05964004 491.69622604 -134.05964004 491.69622604 -132.25 493.5 C-130.2062969 494.09627429 -130.2062969 494.09627429 -127.89871216 494.00552368 C-127.00991364 494.01654617 -126.12111511 494.02756866 -125.2053833 494.03892517 C-124.23284607 494.03075272 -123.26030884 494.02258026 -122.25830078 494.01416016 C-121.23201569 494.02128525 -120.20573059 494.02841034 -119.14834595 494.03575134 C-115.74714111 494.05509007 -112.34655439 494.0467411 -108.9453125 494.0390625 C-106.58502285 494.0489636 -104.22474094 494.06090259 -101.86447144 494.07479858 C-95.64223966 494.10723165 -89.42018396 494.11755875 -83.19787598 494.12164307 C-73.24478345 494.13038305 -63.29183617 494.16585918 -53.33886337 494.2138176 C-49.85949072 494.22642059 -46.38030033 494.22564281 -42.90090942 494.22354126 C-40.76743428 494.23012189 -38.63396039 494.23712821 -36.50048828 494.24462891 C-35.53199951 494.24050491 -34.56351074 494.23638092 -33.56567383 494.23213196 C-28.17564306 494.26456985 -24.01750319 494.52321201 -19.5 497.75 C-17.65193319 500.33729353 -17.37637055 502.34073634 -17.25 505.5 C-18.6239373 508.37872577 -19.99989437 510.24989437 -22.25 512.5 C-24.25412941 512.75726891 -24.25412941 512.75726891 -26.76455688 512.76742554 C-27.7149585 512.77595551 -28.66536011 512.78448547 -29.64456177 512.79327393 C-30.69078705 512.79236755 -31.73701233 512.79146118 -32.81494141 512.79052734 C-34.46396454 512.80060318 -34.46396454 512.80060318 -36.14630127 512.81088257 C-39.79810043 512.82995351 -43.44971656 512.83379193 -47.1015625 512.8359375 C-49.63544796 512.84236114 -52.16933267 512.84908916 -54.70321655 512.85610962 C-60.02465839 512.86810659 -65.34603172 512.87187363 -70.66748047 512.87060547 C-76.8057208 512.86940666 -82.94360802 512.89045216 -89.0817591 512.9220928 C-94.99455259 512.9514795 -100.9072392 512.95857917 -106.82011032 512.95738602 C-109.33107313 512.95974428 -111.84203861 512.96858038 -114.35295486 512.98405075 C-117.87182886 513.00369345 -121.38980224 512.99787749 -124.90869141 512.98583984 C-125.9427713 512.99707886 -126.9768512 513.00831787 -128.04226685 513.01989746 C-135.43687641 512.95576855 -140.79597183 511.46496223 -146.45703125 506.60546875 C-152.19093508 499.75547658 -155.07887825 493.83970321 -154.86108398 484.74731445 C-154.31136478 479.22386001 -152.16842935 474.18642808 -150.20703125 469.03515625 C-149.82857056 468.01941528 -149.45010986 467.00367432 -149.06018066 465.95715332 C-148.13151856 463.46828033 -147.19464577 460.98284061 -146.25 458.5 C-147.15611432 458.49780016 -147.15611432 458.49780016 -148.08053398 458.49555588 C-162.81345266 458.45842242 -177.54617162 458.39932142 -192.27889824 458.31609726 C-199.40370918 458.27637342 -206.52841074 458.24394732 -213.65332031 458.22900391 C-219.86707045 458.21595266 -226.08057922 458.18890023 -232.29419339 458.14538693 C-235.58101462 458.12284928 -238.86747632 458.1091738 -242.15438461 458.10811615 C-245.83359427 458.10574219 -249.51186996 458.0786251 -253.19091797 458.04589844 C-254.26770309 458.0509288 -255.34448822 458.05595917 -256.4539032 458.06114197 C-264.98355779 457.94422783 -272.60184888 456.22191339 -279.125 450.4375 C-285.94458346 442.65799592 -286.83883199 433.17409498 -286.75120544 423.22824097 C-286.75673984 422.0409622 -286.76227424 420.85368344 -286.76797634 419.63042653 C-286.77916114 416.36598299 -286.77262025 413.10215498 -286.75823963 409.83774257 C-286.74706711 406.30532864 -286.75909295 402.77297972 -286.76808167 399.24057007 C-286.78197281 392.3334467 -286.77448902 385.42650689 -286.75940608 378.51939236 C-286.74249804 370.46841969 -286.7457622 362.41749213 -286.74950016 354.36650719 C-286.75537099 339.99869568 -286.74123674 325.63097197 -286.71655273 311.26318359 C-286.69262529 297.33411368 -286.68555296 283.405161 -286.69604492 269.47607422 C-286.70746301 254.2903578 -286.70937387 239.10469553 -286.69494683 223.91897976 C-286.69342106 222.29877099 -286.6919007 220.67856221 -286.69038582 219.05835342 C-286.689628 218.26127272 -286.68887019 217.46419202 -286.68808941 216.64295735 C-286.68335418 211.03602011 -286.68519255 205.42910712 -286.68945122 199.82217026 C-286.69438583 192.98727744 -286.68835791 186.1524953 -286.66855692 179.31762777 C-286.658709 175.83292472 -286.65355266 172.34838991 -286.66144943 168.86367798 C-286.66741014 165.08153625 -286.65488098 161.29988897 -286.63768005 157.51779175 C-286.6436901 156.42313563 -286.64970014 155.32847952 -286.65589231 154.200652 C-286.57697414 144.65073376 -284.85406652 137.28361524 -278.21875 130.2265625 C-272.23487093 124.97879554 -265.76006606 123.37816796 -257.96325588 123.36577892 C-256.66276883 123.36132108 -255.36228177 123.35686324 -254.02238601 123.35227031 C-252.57575062 123.3523596 -251.12911523 123.35254945 -249.68247986 123.35282898 C-248.14831577 123.34952956 -246.61415256 123.34580383 -245.07999045 123.3416875 C-240.85747625 123.33166816 -236.63497626 123.32795081 -232.41245186 123.32529819 C-227.86079754 123.32139492 -223.30915447 123.31181657 -218.75750732 123.30308533 C-207.76162339 123.28332112 -196.76573854 123.27325456 -185.76984128 123.26435754 C-180.59153565 123.25997439 -175.41323105 123.25460763 -170.23492622 123.24936867 C-153.02059485 123.2323561 -135.80626411 123.21786211 -118.59192562 123.21061993 C-114.12451616 123.20871003 -109.65710671 123.2067897 -105.18969727 123.20483398 C-103.52416943 123.20410837 -103.52416943 123.20410837 -101.82499457 123.2033681 C-83.83953837 123.19506848 -65.85414869 123.16973281 -47.86872154 123.13725331 C-29.40300781 123.10417839 -10.93732788 123.08617075 7.52841562 123.08297569 C17.8960361 123.08081095 28.26355959 123.07206757 38.6311512 123.04651451 C47.46108968 123.0248016 56.29090761 123.01676001 65.12086976 123.02648129 C69.62452217 123.03102432 74.12792586 123.02913962 78.63154411 123.00971985 C82.75916179 122.99207547 86.88634954 122.9930961 91.01397186 123.00861714 C92.50260329 123.01099129 93.99126459 123.00667966 95.47985042 122.99478849 C105.7576803 122.91781049 115.7450924 123.44877443 123.6875 130.6875 C130.33581873 138.2043263 131.33617328 145.93638253 131.25793457 155.68310547 C131.26729451 157.48596166 131.26729451 157.48596166 131.27684355 159.32523918 C131.28998347 162.63991577 131.28532926 165.95367823 131.27289867 169.26829815 C131.26381625 172.85119874 131.27783366 176.43402176 131.28881836 180.01690674 C131.30657427 187.02723328 131.30277672 194.03738821 131.2911678 201.04772139 C131.28212218 206.74681471 131.28091434 212.44586005 131.28526306 218.1449585 C131.28587599 218.95709679 131.28648893 219.76923507 131.28712043 220.60598361 C131.28839938 222.25599624 131.28969623 223.90600885 131.2910108 225.55602145 C131.30240801 241.01628818 131.28931638 256.47645992 131.26780933 271.93671107 C131.24993912 285.19288098 131.25304347 298.44891075 131.27148438 311.70507812 C131.29290627 327.11125812 131.30130946 342.51735494 131.28903532 357.92354774 C131.28776117 359.56737898 131.28650368 361.21121024 131.28526306 362.8550415 C131.28433741 364.06813218 131.28433741 364.06813218 131.28339306 365.30572975 C131.27994411 370.99581204 131.28575866 376.68584143 131.29518127 382.37591553 C131.30641732 389.31335255 131.3033276 396.25060862 131.2820583 403.188025 C131.27156933 406.72541922 131.26738887 410.26251209 131.28065491 413.79990387 C131.29483457 417.63906996 131.2778664 421.4777461 131.25793457 425.31689453 C131.2713189 426.98427075 131.2713189 426.98427075 131.28497362 428.68533134 C131.19546871 437.5790911 129.06564057 444.97026992 122.75 451.5 C113.60910914 458.30767478 104.5815249 458.19301226 93.75 457.5 C96.46570195 465.38274549 99.16239584 472.2382881 104.75 478.5 C105.513125 479.36625 106.27625 480.2325 107.0625 481.125 C118.56878538 491.29334522 129.80481667 494.41238651 144.92578125 493.87890625 C157.58171584 493.09482329 167.40120465 487.29983944 176.0625 478.25 C185.73281387 466.76283928 187.05377252 453.66415889 187.01069641 439.21783447 C187.01372062 437.77564985 187.01761145 436.33346682 187.02228898 434.89128661 C187.03254323 430.94614003 187.03039373 427.00108458 187.02610838 423.05593061 C187.02363644 418.79403174 187.0326612 414.53215455 187.04014587 410.27026367 C187.05288245 401.9271299 187.05468782 393.58402833 187.05234561 385.24088648 C187.05056092 378.45678842 187.05231534 371.67270011 187.05657005 364.88860321 C187.05746284 363.43899777 187.05746284 363.43899777 187.05837366 361.96010737 C187.05958544 359.99668568 187.06079958 358.03326399 187.06201603 356.06984231 C187.07288783 337.66419427 187.07073094 319.25856456 187.06463119 300.8529155 C187.0594639 284.02987852 187.07071316 267.20689948 187.08972941 250.38387397 C187.10912133 233.09546107 187.11736133 215.80707556 187.11360615 198.51865172 C187.11169597 188.81840722 187.11416375 179.118212 187.12832069 169.41797638 C187.14025282 161.15878216 187.14161896 152.89966756 187.12953053 144.6404722 C187.12365433 140.4302434 187.12250734 136.22016009 187.13453293 132.0099411 C187.1454342 128.14831129 187.1422384 124.28694772 187.12827124 120.42533013 C187.12439693 118.3824441 187.1351367 116.33954604 187.14656812 114.29668832 C187.0623263 99.80713837 184.36322788 86.91798184 174.421875 75.92578125 C164.18355669 66.18650047 153.12143405 62.22694158 139.17578125 62.19140625 C137.35611627 62.1662693 135.53645488 62.14087098 133.71679688 62.11523438 C130.87948368 62.08642041 128.04223237 62.06236667 125.20483398 62.04370117 C122.44484773 62.02204769 119.68553427 61.98264023 116.92578125 61.94140625 C116.07985916 61.94129044 115.23393707 61.94117462 114.36238098 61.9410553 C109.68080276 61.86247178 106.55221585 61.53723466 102.75 58.5 C100.38055494 54.59041565 100.47727878 50.45833986 100.38671875 46 C99.45093865 42.32577139 97.65946425 40.88192168 94.75 38.5 C91.34599934 37.76290177 91.34599934 37.76290177 87.56054688 37.88818359 C86.85583755 37.88251877 86.15112823 37.87685394 85.42506409 37.87101746 C83.10574443 37.85756065 80.78800036 37.87842657 78.46875 37.8984375 C76.85118543 37.89293518 75.23362785 37.88480863 73.61608887 37.87417603 C69.36326157 37.8513081 65.11094863 37.85550339 60.85809326 37.86798096 C54.05159794 37.88629897 47.24540367 37.87630595 40.4389801 37.84212112 C38.06516599 37.8360246 35.69200045 37.84926677 33.3182373 37.86410522 C31.85864089 37.86115659 30.39904567 37.85750152 28.93945312 37.85302734 C27.03347351 37.85899429 27.03347351 37.85899429 25.08898926 37.86508179 C21.4645333 37.46878735 19.62555239 36.70119397 16.75 34.5 C14.63937127 31.33405691 14.16876142 29.18443806 13.5078125 25.53515625 C12.40069981 22.56193094 11.3606188 21.35309135 8.75 19.5 C5.67750065 18.90698774 2.68312908 18.93091301 -0.4375 19 C-1.29448486 19.01208496 -2.15146973 19.02416992 -3.03442383 19.03662109 C-9.19792576 19.23064529 -14.06738148 19.9753802 -19.25 23.5 C-19.9409375 23.92410156 -20.631875 24.34820313 -21.34375 24.78515625 C-27.73903328 29.06856426 -31.60104154 34.67741449 -34.625 41.6875 C-36.2094518 51.35265601 -36.48877482 60.93256664 -31.25 69.5 C-26.54873483 75.87303137 -21.77312241 80.80421447 -14.25 83.5 C-13.21875 83.9125 -12.1875 84.325 -11.125 84.75 C-4.52400438 86.02761205 3.29416745 87.06426961 9.5546875 84.23046875 C13.84183012 80.85110188 14.17748065 76.7606806 14.9921875 71.62109375 C16.00387652 68.78940746 17.19217845 68.04991854 19.75 66.5 C22.33007812 66.11231995 22.33007812 66.11231995 25.28125 66.09594727 C26.38919922 66.08326309 27.49714844 66.07057892 28.63867188 66.05751038 C29.83041016 66.06044601 31.02214844 66.06338165 32.25 66.06640625 C33.47783203 66.0611644 34.70566406 66.05592255 35.97070312 66.05052185 C38.56639856 66.04409901 41.16212308 66.04544199 43.7578125 66.05395508 C47.73490041 66.06246768 51.71055392 66.03369979 55.6875 66.00195312 C58.2083329 66.00034116 60.72916835 66.00091855 63.25 66.00390625 C65.03760742 65.98705528 65.03760742 65.98705528 66.86132812 65.96986389 C67.96927734 65.97924484 69.07722656 65.98862579 70.21875 65.99829102 C71.67958008 65.99854027 71.67958008 65.99854027 73.16992188 65.99879456 C76.48207801 66.64221332 77.65345785 67.91351887 79.75 70.5 C81.18388055 74.03690535 80.75155411 75.49517409 79.5625 79.1875 C77.67156074 82.64335451 77.23826584 83.1848275 73.75 84.5 C71.67449951 84.7784729 71.67449951 84.7784729 69.44042969 84.81884766 C68.1795755 84.84865219 68.1795755 84.84865219 66.89324951 84.87905884 C65.99519592 84.89061005 65.09714233 84.90216125 64.171875 84.9140625 C62.78201385 84.94311172 62.78201385 84.94311172 61.36407471 84.9727478 C58.40947629 85.03244767 55.45483871 85.07889068 52.5 85.125 C50.49477483 85.1631886 48.48956591 85.20224085 46.484375 85.2421875 C41.57304889 85.3381414 36.661646 85.42220803 31.75 85.5 C31.35242744 86.32403572 31.35242744 86.32403572 30.94682312 87.16471863 C30.41760002 88.2456353 30.41760002 88.2456353 29.87768555 89.34838867 C29.53013718 90.06274582 29.18258881 90.77710297 28.82450867 91.5131073 C27.42607262 94.09897977 25.76425884 95.87543348 23.5625 97.8125 C22.86769531 98.44800781 22.17289062 99.08351563 21.45703125 99.73828125 C14.90610389 104.00158318 8.12598345 105.01174387 0.4375 104.875 C-0.39064209 104.86557373 -1.21878418 104.85614746 -2.07202148 104.84643555 C-17.99559863 104.4570719 -30.16432177 98.86561959 -41.25 87.5 C-52.89513845 74.97128101 -54.90866763 61.10087121 -54.38623047 44.71386719 C-54.11420156 40.29315367 -53.02603972 36.5285779 -51.25 32.5 C-50.93289062 31.69820312 -50.61578125 30.89640625 -50.2890625 30.0703125 C-44.77032956 17.50638856 -34.65771528 9.00283808 -22.5078125 3.1875 C-15.09825542 0.35732435 -7.86589444 0.09495689 0 0 Z " fill="#000000" transform="translate(296.25,-0.5)"/>
<path d="M0 0 C7.16764389 4.11758266 15.3660584 6.88822655 23.625 7.5 C24.31207031 7.56316406 24.99914062 7.62632812 25.70703125 7.69140625 C38.32704155 8.34019617 50.88954399 3.80926438 61.625 -2.5 C61.955 -2.83 62.285 -3.16 62.625 -3.5 C69.58152174 -4.19565217 69.58152174 -4.19565217 73.625 -1.5 C75.8327891 1.81168365 76.21118905 3.57497666 76.2890625 7.4375 C74.89778202 11.75865348 71.29480013 14.08853913 67.56640625 16.37890625 C46.71983957 26.76603947 24.70797073 29.87606368 2.328125 22.3984375 C-3.73188911 19.96501214 -9.33642893 16.94745076 -14.90234375 13.5390625 C-18.05960773 12.21231334 -19.13148929 12.41041768 -22.375 13.5 C-24.57828166 15.31874818 -26.53108153 17.10917465 -28.52636719 19.13378906 C-29.12045883 19.72087143 -29.71455048 20.3079538 -30.3266449 20.91282654 C-32.28522993 22.85382437 -34.22884097 24.80906893 -36.171875 26.765625 C-37.52938353 28.12043885 -38.88748536 29.47465846 -40.24615479 30.82830811 C-43.09041754 33.66667478 -45.92732243 36.51214772 -48.75927734 39.36279297 C-52.38974143 43.01604601 -56.0378664 46.65104858 -59.69169235 50.28091812 C-62.49903432 53.07380546 -65.29677847 55.87615086 -68.09171295 58.68144989 C-69.43320352 60.02560863 -70.77767142 61.36680273 -72.12514496 62.70496368 C-74.0070181 64.57667746 -75.87559001 66.46073791 -77.74121094 68.34863281 C-78.30015549 68.89948044 -78.85910004 69.45032806 -79.4349823 70.01786804 C-82.38284788 73.0312619 -84.20133582 75.20253381 -84.375 79.5 C-74.91746217 105.52878891 -47.97100525 125.70558418 -24 137.25 C7.12715433 151.65236115 42.10244957 151.34304257 74.0390625 139.96875 C88.7489739 134.42228051 101.97013122 126.03420832 113.625 115.5 C114.59953125 114.61957031 115.5740625 113.73914063 116.578125 112.83203125 C124.61531742 105.30716468 130.76475248 96.78605054 136.625 87.5 C137.23601562 86.61368896 137.23601562 86.61368896 137.859375 85.70947266 C140.0710473 82.31148811 141.22915394 79.6141524 140.50222778 75.55418396 C138.39442105 70.6183818 133.74276763 67.11073374 129.90234375 63.5078125 C128.91533667 62.55489789 127.93030305 61.59993538 126.94715881 60.64303589 C122.78238955 56.59704948 118.58039754 52.59052029 114.36889648 48.59326172 C111.78757723 46.1405067 109.22890523 43.66584975 106.68206978 41.17733383 C105.2410899 39.7832053 103.77461679 38.41558233 102.30784607 37.0486145 C95.04769827 29.95428513 95.04769827 29.95428513 94.93579102 24.51904297 C95.20769814 21.74368128 95.6698247 20.42009511 97.0625 17.9375 C101.11412996 15.66463441 104.11773082 15.37618984 108.625 16.5 C110.66235352 17.93066406 110.66235352 17.93066406 112.81640625 19.953125 C113.6868457 20.76934326 114.55728516 21.58556152 115.45410156 22.42651367 C116.51308082 23.44892811 117.56983774 24.47364677 118.625 25.5 C119.25974243 26.1155777 119.89448486 26.7311554 120.54846191 27.36538696 C125.08339444 31.77643056 129.57939408 36.22529331 134.05834961 40.69311523 C136.44264238 43.06762127 138.83740724 45.43123701 141.23242188 47.79492188 C142.76628193 49.32225721 144.29950742 50.85023015 145.83203125 52.37890625 C146.54043655 53.07496475 147.24884186 53.77102325 147.97871399 54.48817444 C154.6551967 61.19464911 159.64568256 67.59433892 160.125 77.3125 C159.92408915 95.43465843 143.53191556 112.15208757 131.625 124.5 C130.55185547 125.66789062 130.55185547 125.66789062 129.45703125 126.859375 C104.88091458 152.86487181 68.70150188 165.65462269 33.625 167.5 C-5.3101803 168.57888534 -43.36025002 154.83210189 -71.75952148 128.01928711 C-73.30988837 126.52441753 -74.84555549 125.01624651 -76.375 123.5 C-77.66857422 122.22576172 -77.66857422 122.22576172 -78.98828125 120.92578125 C-89.23479072 110.25437665 -103.11027202 93.7294001 -103.9375 78.4375 C-102.76901153 64.82101787 -94.12195803 57.35986287 -84.8984375 48.2265625 C-83.44749783 46.77157473 -81.99744929 45.31569781 -80.54824829 43.85897827 C-77.51658708 40.81850141 -74.47441855 37.78906365 -71.42431641 34.76708984 C-67.53035165 30.90730766 -63.66395092 27.02120789 -59.80505943 23.12639809 C-56.81834372 20.11792274 -53.81738665 17.12398056 -50.81203079 14.1341362 C-49.38120659 12.70729286 -47.95476597 11.27603878 -46.53297043 9.84019852 C-31.51878684 -5.28965141 -19.72586037 -11.50081751 0 0 Z " fill="#000000" transform="translate(190.375,191.5)"/>
</svg>
