<?xml version="1.0" encoding="UTF-8"?>
<svg version="1.1" xmlns="http://www.w3.org/2000/svg" width="512" height="512">
<style>path { stroke: #000000; stroke-width: 13px; }</style>
<path d="M0 0 C6.13391373 6.545261 9.04620992 14.13213726 9.375 23.0625 C8.80250629 35.05624316 4.13882921 42.24877298 -4.1875 50.5 C-5.64392228 51.9680627 -7.09958672 53.43687745 -8.5546875 54.90625 C-12.74504468 59.12505941 -16.95930843 63.31913622 -21.1875 67.5 C-20.10400091 69.72797432 -19.015787 71.75413524 -17.625 73.8125 C-15.52955346 77.73007397 -14.70727828 81.16930503 -15.61930245 85.59569824 C-17.42309705 91.44046456 -19.88234637 95.05971239 -24.2245636 99.30569458 C-25.14464157 100.24087081 -25.14464157 100.24087081 -26.08330697 101.19493949 C-28.12788519 103.26564278 -30.19307667 105.31441217 -32.2590332 107.36376953 C-33.73551687 108.85002799 -35.21072988 110.33754966 -36.68476868 111.82623291 C-40.68373521 115.85677496 -44.70147921 119.86808898 -48.72386193 123.87524652 C-52.08669178 127.22891059 -55.44003401 130.59198036 -58.79338998 133.95511329 C-66.7108983 141.89552108 -74.64352538 149.82059267 -82.58618164 157.73583984 C-90.76106973 165.88296473 -98.91216465 174.05333324 -107.05146533 182.23599923 C-114.05458832 189.27498699 -121.07134352 196.30017382 -128.09926289 203.31440437 C-132.29011632 207.49723929 -136.47598377 211.68475306 -140.64919472 215.88519669 C-144.57908041 219.83935756 -148.52587513 223.77585073 -152.4858532 227.69986725 C-153.92929048 229.13570299 -155.36691646 230.57741062 -156.79793549 232.02562332 C-170.12193412 245.49631648 -183.49185858 254.26270312 -203.1875 254.5 C-213.81486029 253.80858138 -222.78140309 250.28051043 -232.1875 245.5 C-235.52505798 251.88489353 -237.4856749 257.21530374 -235.69140625 264.51953125 C-233.24718367 271.74172566 -229.26149932 276.35870745 -222.4453125 279.73828125 C-215.84627624 281.96459971 -208.85651708 281.64827208 -201.97900391 281.64526367 C-200.31666466 281.65030159 -200.31666466 281.65030159 -198.6207428 281.65544128 C-194.96850453 281.66491617 -191.31631228 281.66689259 -187.6640625 281.66796875 C-185.11729921 281.67118348 -182.5705361 281.67454771 -180.02377319 281.67805481 C-174.68934629 281.68403723 -169.35493643 281.68593853 -164.02050781 281.68530273 C-157.87263719 281.68470222 -151.72485439 281.69525365 -145.57700598 281.7110464 C-139.64125368 281.72574564 -133.70552796 281.72928952 -127.76975632 281.72869301 C-125.25404883 281.72987071 -122.73834065 281.73428068 -120.22264481 281.74202538 C-116.69995137 281.75185581 -113.17748245 281.74893514 -109.65478516 281.74291992 C-108.62280502 281.74853943 -107.59082489 281.75415894 -106.52757263 281.75994873 C-96.61032316 281.71705926 -88.45167619 280.71487182 -81.1875 273.5 C-77.69761556 268.83001013 -76.07449129 264.18186235 -76.0456543 258.39672852 C-76.03861984 257.59811905 -76.03158539 256.79950958 -76.02433777 255.97669983 C-76.01809135 254.69079201 -76.01809135 254.69079201 -76.01171875 253.37890625 C-75.98849542 251.53709826 -75.96437711 249.69530138 -75.93945312 247.85351562 C-75.90457361 244.97071156 -75.8751213 242.08831013 -75.86157227 239.20532227 C-75.77059937 222.99115223 -74.97464871 209.52721085 -63.1171875 197.37890625 C-53.33765481 188.09346145 -43.65948133 185.99662017 -30.53125 186.22265625 C-18.98546887 186.72540798 -10.68447816 192.66061396 -2.9375 200.75 C3.62148295 208.37852241 5.91364235 217.09465268 5.97021484 226.99926758 C5.98560806 228.94202324 5.98560806 228.94202324 6.00131226 230.92402649 C6.00475018 231.61142725 6.0081881 232.29882801 6.01173019 233.0070591 C6.02359379 235.17306526 6.04306541 237.33887864 6.06484985 239.50480652 C6.12621344 245.6607718 6.18042634 251.81671484 6.21386719 257.97290039 C6.23490843 261.74600833 6.27028353 265.51875936 6.31462479 269.29166222 C6.32870703 270.72241685 6.33748951 272.15323457 6.34067917 273.58405495 C6.36288113 282.59016212 6.79699027 289.31332326 11.375 297.1875 C16.46137279 302.01303316 22.27252668 304.77549778 29.3125 305.125 C35.2422426 304.79789963 40.07194769 303.09685262 44.8125 299.5 C50.1806962 293.36803604 51.92942308 288.2473606 51.9543457 280.19360352 C51.96138016 278.914496 51.96841461 277.63538849 51.97566223 276.31752014 C51.97747812 275.63573259 51.97929401 274.95394505 51.98116493 274.25149727 C51.98837483 272.10099383 52.00407909 269.95071278 52.02250671 267.80027771 C52.07473173 261.68662767 52.12282076 255.57309632 52.13842773 249.45922852 C52.14861441 245.71311336 52.17821035 241.96755558 52.21974754 238.22166252 C52.23191949 236.80620514 52.23720455 235.39066851 52.23494911 233.9751606 C52.21968713 221.25864987 53.73902868 209.04033897 62.8125 199.5 C63.46089844 198.81164062 64.10929687 198.12328125 64.77734375 197.4140625 C75.33228235 187.14542422 86.65845244 185.6732169 100.73339844 185.84814453 C103.33672698 185.87525227 105.93585473 185.84812888 108.5390625 185.81640625 C110.20313446 185.8197056 111.86720383 185.82610198 113.53125 185.8359375 C114.30416382 185.82581635 115.07707764 185.81569519 115.87341309 185.80526733 C119.73249256 185.88953729 121.45221493 186.15888956 124.29882812 188.85400391 C126.16414045 192.11469019 126.42946986 193.79818082 125.8125 197.5 C124.18237305 200.14770508 124.18237305 200.14770508 121.8125 202.5 C118.83911133 203.12768555 118.83911133 203.12768555 115.39453125 203.13671875 C114.13962891 203.15669922 112.88472656 203.17667969 111.59179688 203.19726562 C110.28275391 203.19404297 108.97371094 203.19082031 107.625 203.1875 C90.18690864 202.89921717 90.18690864 202.89921717 75.8125 211.5 C70.59111495 218.73635558 70.11586611 225.85744911 70.22091484 234.56807899 C70.24671707 236.72795858 70.241415 238.88596486 70.22901917 241.04594421 C70.20842879 245.63500922 70.22783313 250.22347499 70.25 254.8125 C70.27126613 260.12847207 70.27537302 265.44382587 70.24949837 270.75978661 C70.24619222 272.86313361 70.26716498 274.96523428 70.28990173 277.06843567 C70.25413729 290.13614032 67.63744294 301.533432 58.8125 311.5 C51.6684759 318.50515538 41.35832447 323.05177095 31.3671875 323.5625 C19.42763899 323.27040095 8.8529982 319.42530516 -0.1875 311.5 C-9.50592601 300.98044631 -11.78716636 288.85603097 -11.70392036 275.14710045 C-11.69104101 273.0137191 -11.7027977 270.88158512 -11.71995544 268.74824524 C-11.74637885 264.9916107 -11.75226124 261.23529405 -11.75085449 257.47857666 C-11.74860647 251.45114711 -11.76300439 245.4241073 -11.80644035 239.39682961 C-11.81618295 237.30955899 -11.80761857 235.2229222 -11.79774475 233.13566589 C-11.84229494 224.85907544 -12.55351714 219.03045053 -16.75 211.8125 C-21.83637279 206.98696684 -27.64752668 204.22450222 -34.6875 203.875 C-40.6172426 204.20210037 -45.44694769 205.90314738 -50.1875 209.5 C-54.74293383 214.70356466 -57.29472815 219.65846841 -57.3293457 226.60327148 C-57.33638016 227.40188095 -57.34341461 228.20049042 -57.35066223 229.02330017 C-57.35690865 230.30920799 -57.35690865 230.30920799 -57.36328125 231.62109375 C-57.38650458 233.46290174 -57.41062289 235.30469862 -57.43554688 237.14648438 C-57.47042639 240.02928844 -57.4998787 242.91168987 -57.51342773 245.79467773 C-57.67418027 274.44572646 -57.67418027 274.44572646 -68.1875 285.5 C-68.83589844 286.18835938 -69.48429688 286.87671875 -70.15234375 287.5859375 C-79.53991966 296.71887754 -89.7800816 299.25762961 -102.58422852 299.13110352 C-103.8655365 299.13825882 -105.14684448 299.14541412 -106.46697998 299.15278625 C-109.9444402 299.17112338 -113.4211226 299.15847667 -116.89854932 299.13869596 C-120.55956568 299.12216337 -124.22053838 299.13114229 -127.88157654 299.13621521 C-134.02526093 299.14071946 -140.16863922 299.12496931 -146.31225586 299.09692383 C-153.3890659 299.06486499 -160.46532468 299.06489856 -167.54217392 299.0821386 C-174.38515398 299.09806657 -181.22793424 299.09123097 -188.07090569 299.07420158 C-190.96739033 299.0673753 -193.86371267 299.06831747 -196.76019478 299.07574654 C-200.81382374 299.08491334 -204.86661854 299.06074082 -208.92016602 299.03344727 C-210.69803749 299.04323608 -210.69803749 299.04323608 -212.51182556 299.05322266 C-224.27102052 298.91924963 -233.61714809 295.68152687 -242.1875 287.5 C-250.10137572 279.21001929 -254.30902119 269.00979274 -254.1875 257.5 C-253.66851877 249.38401692 -251.36410789 243.08369794 -247.4296875 235.99609375 C-245.96473422 233.51705058 -245.96473422 233.51705058 -246.1875 230.5 C-246.90937444 228.9963327 -247.68874418 227.51988878 -248.5 226.0625 C-255.05501581 213.19455703 -256.14600406 199.18127678 -252.15234375 185.3046875 C-246.83359414 169.84370685 -234.21990258 159.37990978 -222.93457031 148.0859375 C-221.51261315 146.65934259 -220.09085038 145.2325539 -218.66926575 143.80558777 C-214.83531684 139.95861882 -210.99812552 136.11490097 -207.15989399 132.27220535 C-204.76011842 129.86948666 -202.3609258 127.46618733 -199.96190643 125.06271362 C-192.44906322 117.53623292 -184.93424852 110.01172907 -177.41652131 102.49012661 C-168.74797376 93.81708485 -160.0860315 85.13751609 -151.42968869 76.4522934 C-144.72564181 69.72665796 -138.01586839 63.00677119 -131.30168796 56.29125214 C-127.29565485 52.28417047 -123.29209489 48.27468963 -119.29447174 44.25921631 C-115.54173793 40.49004731 -111.78196312 36.72804936 -108.01660728 32.97149086 C-106.6357198 31.59137576 -105.25740058 30.20868552 -103.88183784 28.82326317 C-102.00573044 26.93449724 -100.12063496 25.05518451 -98.23297119 23.17797852 C-97.41774486 22.35066758 -97.41774486 22.35066758 -96.58604932 21.5066433 C-92.39747312 17.37224219 -88.72514403 15.23172643 -82.8125 15.125 C-77.92252325 15.22279953 -75.19656287 16.77383725 -71.1875 19.5 C-70.1975 20.16 -69.2075 20.82 -68.1875 21.5 C-67.48778076 20.76885986 -66.78806152 20.03771973 -66.06713867 19.28442383 C-63.4309075 16.53840321 -60.77388948 13.81326523 -58.1105957 11.09350586 C-56.9675859 9.92059033 -55.83004867 8.74231283 -54.69848633 7.55834961 C-46.83763132 -0.65681702 -40.01639294 -6.32530752 -28.8125 -9.4375 C-17.6971659 -9.62914369 -8.3189631 -7.45304873 0 0 Z M-46.125 23.25 C-47.10411193 24.24418516 -48.08392416 25.23768113 -49.06445312 26.23046875 C-51.4457637 28.6469711 -53.81976054 31.0702112 -56.1875 33.5 C-54.67373919 37.06764285 -52.58236871 39.33706287 -49.8359375 42.046875 C-48.98515625 42.89121094 -48.134375 43.73554688 -47.2578125 44.60546875 C-46.36835938 45.47816406 -45.47890625 46.35085937 -44.5625 47.25 C-43.6653125 48.13816406 -42.768125 49.02632812 -41.84375 49.94140625 C-39.62942996 52.13216969 -37.41057565 54.31812763 -35.1875 56.5 C-29.70412854 51.90876437 -24.52707009 47.08545268 -19.4375 42.0625 C-18.68339844 41.33740234 -17.92929687 40.61230469 -17.15234375 39.86523438 C-12.35082139 35.119147 -8.51755549 31.04902572 -8.0078125 24.0234375 C-8.63724469 19.58513358 -9.18637643 16.00131083 -12.1875 12.5 C-16.77164947 9.10772939 -20.12075524 8.053235 -25.78125 7.96875 C-34.49174447 9.89184618 -40.16061256 17.12452242 -46.125 23.25 Z M-86.16712379 35.23352814 C-86.98383238 36.05208031 -87.80054096 36.87063248 -88.64199829 37.71398926 C-89.09698145 38.16726357 -89.55196461 38.62053788 -90.02073514 39.08754778 C-91.55329191 40.61679446 -93.07856361 42.15310996 -94.60400391 43.68945312 C-95.69745164 44.78346465 -96.79133926 45.87703667 -97.88563538 46.97019958 C-100.86305827 49.94704669 -103.83425791 52.93003711 -106.80441713 55.91412926 C-109.90652609 59.02870803 -113.01426825 62.13765527 -116.12142944 65.24719238 C-122.00796747 71.13995623 -127.88938708 77.03780153 -133.76900613 82.93746805 C-140.46148531 89.652272 -147.15961822 96.36142395 -153.85824323 103.07009602 C-167.6409837 116.87376345 -181.41657176 130.68454884 -195.1875 144.5 C-191.77168599 148.55382735 -188.31584755 152.49629253 -184.55908203 156.24194336 C-183.26842331 157.53248878 -183.26842331 157.53248878 -181.95169067 158.84910583 C-181.04208588 159.75354935 -180.13248108 160.65799286 -179.1953125 161.58984375 C-178.23959752 162.54368954 -177.28410612 163.49775941 -176.3288269 164.45204163 C-173.83555084 166.94153194 -171.33928475 169.42800224 -168.84234619 171.91381836 C-166.28628491 174.45957994 -163.73311495 177.00823777 -161.1796875 179.55664062 C-156.18508981 184.54057069 -151.18732201 189.52131048 -146.1875 194.5 C-142.60157463 192.97800665 -140.3081208 190.86744251 -137.56842041 188.12142944 C-136.64577896 187.20153732 -135.72313751 186.2816452 -134.77253723 185.33387756 C-133.75744481 184.31170737 -132.74244864 183.28944158 -131.72753906 182.26708984 C-130.65350073 181.19248727 -129.57902162 180.1183251 -128.50413513 179.04457092 C-125.5888126 176.1298224 -122.67969928 173.20894689 -119.77165318 170.28694105 C-116.73096373 167.23375233 -113.68461269 164.18622334 -110.63885498 161.13809204 C-104.87279328 155.36581322 -99.11184896 149.58845491 -93.35272098 143.80925906 C-86.79563567 137.22982199 -80.23287301 130.65606047 -73.66962481 124.08277202 C-60.16925156 110.56149151 -46.67603257 97.03309201 -33.1875 83.5 C-36.59915837 79.4550299 -40.04950813 75.51184863 -43.78417969 71.75805664 C-45.06515533 70.46751122 -45.06515533 70.46751122 -46.37200928 69.15089417 C-47.72700531 67.7942289 -47.72700531 67.7942289 -49.109375 66.41015625 C-50.06015042 65.45616152 -51.01085309 64.50209429 -51.96148682 63.54795837 C-53.93984764 61.56365161 -55.92022151 59.58137957 -57.90185547 57.6003418 C-60.4446448 55.05765496 -62.98043373 52.50810461 -65.51459885 49.95682621 C-67.4688145 47.99152825 -69.42752138 46.03075535 -71.38755035 44.07125664 C-72.78101156 42.67603967 -74.16992297 41.27628344 -75.55877686 39.8764801 C-76.40015198 39.03818161 -77.2415271 38.19988312 -78.10839844 37.33618164 C-78.84975037 36.59340469 -79.59110229 35.85062775 -80.35491943 35.08534241 C-82.96309106 32.82904592 -83.58196684 32.9697433 -86.16712379 35.23352814 Z M-216.90551758 165.92285156 C-218.34274708 167.34312753 -219.79331391 168.74986658 -221.24414062 170.15625 C-229.989957 178.8227254 -237.40329109 187.8711825 -237.5625 200.6875 C-237.35719527 211.3029624 -233.67977347 219.94884816 -226.1875 227.5 C-218.43132256 233.77358069 -209.69149655 237.96469805 -199.5546875 237.7734375 C-185.24716769 236.12075369 -176.25087874 226.89436462 -166.625 217.0625 C-165.80708984 216.23556641 -164.98917969 215.40863281 -164.14648438 214.55664062 C-162.15544393 212.54231316 -160.16927203 210.52343956 -158.1875 208.5 C-159.72644289 204.84771612 -161.92173244 202.51804059 -164.71313477 199.73144531 C-165.17023834 199.27244339 -165.62734192 198.81344147 -166.09829712 198.3405304 C-167.60366458 196.83147141 -169.11608696 195.32971056 -170.62890625 193.828125 C-171.67776841 192.78045526 -172.72626083 191.73241525 -173.7743988 190.684021 C-175.96785684 188.49212481 -178.16462779 186.30362351 -180.36401367 184.11767578 C-183.18949065 181.30924065 -186.00828733 178.49421481 -188.82487583 175.67686844 C-190.98720545 173.51481 -193.15212557 171.35536183 -195.31794548 169.19680023 C-196.35880682 168.15912992 -197.3990558 167.120845 -198.43869209 166.08194733 C-199.88703056 164.63576484 -201.33904994 163.19327153 -202.79125977 161.75097656 C-203.6179567 160.92809143 -204.44465363 160.1052063 -205.29640198 159.25738525 C-209.59279894 155.26477113 -213.64084132 162.68495735 -216.90551758 165.92285156 Z " fill="#000000" transform="translate(320.1875,157.5)"/>
<path d="M0 0 C0.88099365 0.01732178 1.7619873 0.03464355 2.66967773 0.05249023 C38.09511046 1.28399798 71.83517123 17.99241701 96.0625 43.5625 C115.84378422 65.86879248 130.410417 95.43628063 132.0625 125.5625 C132.12695312 126.71234375 132.19140625 127.8621875 132.2578125 129.046875 C132.29648437 130.28953125 132.33515625 131.5321875 132.375 132.8125 C132.43107422 134.55273438 132.43107422 134.55273438 132.48828125 136.328125 C131.97028516 140.2629944 130.94329079 141.8658012 128.0625 144.5625 C125.84375 145.2265625 125.84375 145.2265625 123.5625 145.1875 C122.8096875 145.20039063 122.056875 145.21328125 121.28125 145.2265625 C117.81280372 144.18847118 116.87053264 142.67897732 115.0625 139.5625 C114.3935073 136.3292853 114.23468771 133.10484769 114.0625 129.8125 C111.59381151 96.95163958 96.97601725 67.3074271 72.0625 45.5625 C62.92504551 37.97113226 52.86478928 32.4156617 42.0625 27.5625 C40.46148437 26.83740234 40.46148437 26.83740234 38.828125 26.09765625 C25.93214061 20.71341911 12.08479207 18.23720021 -1.8359375 17.8359375 C-5.88772901 17.47872666 -8.80174714 16.65908896 -11.75 13.8125 C-13.34861212 10.78355071 -13.42121136 8.94847949 -12.9375 5.5625 C-9.67173847 -0.34366448 -6.15935654 -0.1981166 0 0 Z " fill="#000000" transform="translate(313.9375,31.4375)"/>
<path d="M0 0 C17.49841379 4.06705353 33.2539438 12.57669987 46.54199219 24.59082031 C47.91484375 25.82251953 47.91484375 25.82251953 49.31542969 27.07910156 C64.03395555 40.99367433 73.53269465 59.05707716 78.54199219 78.59082031 C78.76757812 79.46738281 78.99316406 80.34394531 79.22558594 81.24707031 C80.47458281 86.96661463 80.82387867 92.69157828 80.97949219 98.52832031 C81.01397461 99.26276367 81.04845703 99.99720703 81.08398438 100.75390625 C81.11396606 104.57216138 80.88223788 106.22754614 78.23339844 109.05566406 C74.63796934 111.1064676 72.61674744 111.31845518 68.54199219 110.59082031 C63.51984886 105.90151417 62.80099396 102.28249629 62.47949219 95.59082031 C61.02874774 77.3481458 54.69021209 60.44357887 42.54199219 46.59082031 C41.97351563 45.86894531 41.40503906 45.14707031 40.81933594 44.40332031 C27.62985934 28.27351454 6.24417345 18.15394039 -14.26269531 16.04785156 C-16.66487493 15.81061397 -19.05955089 15.59606787 -21.46899414 15.44897461 C-24.9816451 15.17503251 -27.10261078 14.86623893 -29.92285156 12.68066406 C-31.74993526 10.19341271 -32.30762616 8.67364426 -32.45800781 5.59082031 C-28.89849256 -8.00005611 -10.14433049 -2.03665445 0 0 Z " fill="#000000" transform="translate(327.4580078125,71.4091796875)"/>
<path d="M0 0 C16.12391474 6.35925692 28.56675522 18.14691991 36.16015625 33.6953125 C39.96338427 42.7151303 43.08407531 53.48060447 41.34765625 63.3203125 C39.28515625 66.5078125 39.28515625 66.5078125 36.34765625 68.3203125 C32.84765625 68.9453125 32.84765625 68.9453125 29.34765625 68.3203125 C26.16406119 65.7687547 24.55860103 64.20034776 23.59765625 60.19140625 C23.51515625 59.05832031 23.43265625 57.92523438 23.34765625 56.7578125 C21.7719358 42.82435849 15.47874452 32.13881087 4.875 23.140625 C-2.66429709 17.71046666 -11.182071 15.70634345 -20.22094727 14.39526367 C-24.11160258 13.79755757 -26.85603318 13.17845795 -29.65234375 10.3203125 C-30.75607753 6.34687089 -31.06777958 4.23031478 -29.33984375 0.4453125 C-23.59880422 -6.78414468 -7.44007693 -2.39894251 0 0 Z " fill="#000000" transform="translate(325.65234375,113.6796875)"/>
</svg>
